<?xml version="1.0" encoding="utf-8"?>
<!-- Generator: Adobe Illustrator 21.1.0, SVG Export Plug-In . SVG Version: 6.00 Build 0)  -->
<svg version="1.1" id="レイヤー_1" xmlns="http://www.w3.org/2000/svg" xmlns:xlink="http://www.w3.org/1999/xlink" x="0px"
	 y="0px" viewBox="0 0 1280 512" style="enable-background:new 0 0 1280 512;" xml:space="preserve">
<style type="text/css">
	.st0{fill:#FFFFFF;}
</style>
<g>
	<g id="XMLID_1_">
		<g>
			<path class="st0" d="M1264.9,184.8c4.7,121.7-49.9,224.2-132.6,305.9c-22.1,22-84.7,3.3-152.8,3.3
				c42.3-60.4,66.2-94.7,91.3-130.3c-116.3-10-193.6-86.9-188.7-184.9c4.7-93.4,82-169.4,175.6-172.5
				C1176.4,2.3,1260.8,72.3,1264.9,184.8z M1110.5,266.1c27.6-63,20.3-111.8-33.4-144.8c-9.4-5.8-48.8,12.7-51.9,25.4
				C1010,208.4,1034.5,250.7,1110.5,266.1z"/>
			<path class="st0" d="M485.2,22.6c110.7,0,218.4,0,338.7,0c-42.5,150.9-78.7,302.4-132.1,447.6c-9.6,26.3-90.3,26.3-158.6,43.4
				c43.9-139.5,79.8-253.4,119.4-379.2c-68,0-128.6,0-197,0C466.9,91.2,475.2,60,485.2,22.6z"/>
			<path class="st0" d="M379.6,377.1c12.5,119.9,11.1,121.6-100.3,121.7c-48.3,0.2-96.9-3.8-144.8,1.1c-63.3,6.2-94.7-22.1-104-72.4
				c62.2-67.9,123.4-129.7,177.8-197c17.2-21.4,16.1-57.5,23.4-86.7c-31.4,2.2-64-0.2-94,7.8c-27.9,7.3-53,25.2-104.7,27
				C51,132,55.9,67.6,89.9,42.6c77.8-57.5,203.4-48.1,253.6,2.9c54.8,55.5,50.6,120.6,17.4,183.8c-26.1,49.7-60.2,95.2-94,147.9
				C309.6,377.1,344.8,377.1,379.6,377.1z"/>
		</g>
	</g>
</g>
</svg>
