<svg xmlns="http://www.w3.org/2000/svg" viewBox="0 0 188.46 188.46"><defs><style>.cls-1{fill:none;}.cls-2{fill:#e28900;}.cls-3{fill:#00468b;}</style></defs><title>アセット 2</title><g id="レイヤー_2" data-name="レイヤー 2"><g id="レイヤー_1-2" data-name="レイヤー 1"><path class="cls-1" d="M85.72,7.75c1.82.48,3.59,1,5.34,1.64C89.31,8.75,87.54,8.23,85.72,7.75Z"/><path class="cls-1" d="M0,0V188.46H188.46V0ZM153.82,159.38A90.69,90.69,0,1,1,64.63,5.09C67,4.25,69.46,3.5,71.94,2.86h.19c1.22-.32,2.45-.6,3.68-.86l.73-.2,1.71-.32,1.13-.2C80.2,1.14,81,1,81.85.9L83.34.7c.47-.07.93-.11,1.47-.17L86.35.38c.43,0,.87-.12,1.31-.12C88.52.2,89.39.1,90.26.1l1.1,0h6.15a85.76,85.76,0,0,1,9.6.84,90.66,90.66,0,0,1,46.71,158.49Z"/><path class="cls-1" d="M139,108.44a77.81,77.81,0,0,0-47.93-99A140.15,140.15,0,0,0,25.93,149.88,77.81,77.81,0,0,0,139,108.44Z"/><path class="cls-2" d="M91.06,9.39c-1.75-.61-3.52-1.16-5.34-1.64A78.6,78.6,0,0,0,64.63,5.09a90.71,90.71,0,0,0-38.7,144.79A140.15,140.15,0,0,1,91.06,9.39Z"/><path class="cls-3" d="M118.11,3.1a91.52,91.52,0,0,0-11-2.21,85.76,85.76,0,0,0-9.6-.84H91.36L90.26.1c-.87,0-1.74.1-2.6.16-.44,0-.88.08-1.31.12L84.81.53c-.54.06-1,.1-1.47.17L81.85.9c-.83.12-1.65.24-2.47.38l-1.13.2-1.71.32-.73.2c-1.23.26-2.46.54-3.68.86h-.19C69.46,3.5,67,4.25,64.63,5.09A78.6,78.6,0,0,1,85.72,7.75c1.82.48,3.59,1,5.34,1.64A77.81,77.81,0,1,1,25.93,149.88,90.68,90.68,0,1,0,118.11,3.1Z"/></g></g></svg>