<?xml version="1.0" encoding="utf-8"?>
<!-- Generator: Adobe Illustrator 23.0.3, SVG Export Plug-In . SVG Version: 6.00 Build 0)  -->
<svg version="1.1" id="_x32_" xmlns="http://www.w3.org/2000/svg" xmlns:xlink="http://www.w3.org/1999/xlink" x="0px" y="0px"
	 viewBox="0 0 512 512" style="enable-background:new 0 0 512 512;" xml:space="preserve">
<style type="text/css">
	.st0{fill:#339933;}
</style>
<g>
	<path class="st0" d="M443.3,100.3c-4.6-23.4-16-45.9-34.1-64c-12.1-12-26.1-21.2-41.1-27.2C345.7,0,321.3-2.3,297.9,2.2
		c-23.4,4.6-46,16-64,34.1l-94.1,94.2c-12.1,12-21.2,26.1-27.3,41c-9.1,22.5-11.3,46.9-6.8,70.3c4.5,23.4,15.9,45.9,34,64
		c12,12.1,26.1,21.2,41,27.2c22.4,9.1,46.8,11.4,70.3,6.8c23.4-4.5,46-16,64-34.1l7.1-7c0.8-6.5,0-13.2-2.4-19.2
		c-1.9-4.6-4.7-8.9-8.3-12.5c-5.4-5.5-12-8.9-19.5-10.4c-4-0.8-8.1-0.9-12.2-0.3l-7,7.1c-6.3,6.2-13.5,10.9-21.1,14.1
		c-11.5,4.7-24.2,5.9-36.3,3.5c-12.2-2.3-23.6-8.1-33-17.5c-6.3-6.3-10.9-13.5-14.1-21.2c-4.7-11.5-5.8-24.2-3.5-36.3
		c2.4-12.1,8.1-23.5,17.6-33l94.1-94.1c6.3-6.3,13.5-11,21.1-14c11.5-4.7,24.2-5.9,36.3-3.5c12.1,2.4,23.5,8.1,33,17.5
		c6.3,6.3,10.9,13.5,14.1,21.2c4.6,11.5,5.8,24.2,3.5,36.3c-2.3,11.9-7.9,23-16.9,32.3c8.3,5.5,16.1,11.9,23.3,19.1
		c7.2,7.2,13.6,15,19.1,23.4c11.8-11.9,20.7-25.7,26.6-40.4C445.5,148.2,447.8,123.8,443.3,100.3z"/>
	<path class="st0" d="M372.3,206.2c-12-12-26-21.2-41-27.2c-22.4-9.1-46.9-11.3-70.3-6.8c-23.4,4.5-45.9,15.9-64,34l-7.1,7.1
		c-0.8,6.5,0,13.2,2.5,19.2c1.9,4.6,4.7,8.9,8.3,12.5c5.4,5.4,12,8.9,19.5,10.3c4,0.8,8.2,0.9,12.2,0.4l7-7
		c6.3-6.3,13.4-11,21.1-14.1c11.5-4.7,24.2-5.8,36.3-3.5c12.1,2.4,23.5,8.2,33,17.6c6.3,6.3,10.9,13.4,14,21.1
		c4.7,11.6,5.8,24.3,3.5,36.4c-2.4,12.2-8.1,23.5-17.6,33l-94.2,94.1c-6.3,6.3-13.5,11-21.1,14.1c-11.5,4.6-24.2,5.8-36.3,3.5
		c-12.1-2.4-23.5-8.2-33-17.6c-6.3-6.3-10.9-13.4-14-21.1c-4.7-11.6-5.9-24.2-3.5-36.3c2.3-11.9,7.9-23,17-32.3
		c-8.4-5.5-16.1-11.9-23.3-19.1l-0.1,0c-7.2-7.2-13.5-15-19-23.3c-11.8,11.9-20.7,25.7-26.6,40.4c-9.1,22.4-11.3,46.9-6.8,70.3
		c4.5,23.5,16,46,34.1,64c12,12.1,26.1,21.2,41,27.3c22.4,9.1,46.9,11.3,70.3,6.8s46-15.9,64-34l94.1-94.1
		c12.1-12.1,21.2-26.1,27.3-41c9.1-22.5,11.3-46.9,6.8-70.3C401.8,246.8,390.4,224.2,372.3,206.2z"/>
</g>
</svg>
