<svg xmlns="http://www.w3.org/2000/svg" viewBox="0 0 214.8 214.8"><defs><style>.cls-1{fill:none;stroke:#059392;stroke-miterlimit:10;stroke-width:10px;}.cls-2{fill:#059392;}</style></defs><title>アセット 2</title><g id="レイヤー_2" data-name="レイヤー 2"><g id="レイヤー_1-2" data-name="レイヤー 1"><circle class="cls-1" cx="107.4" cy="107.4" r="102.4"/><path class="cls-2" d="M60.81,12.52c1.3,0,4.3,1.1,7.7,3.3,3.8,2.5,5.4,4.5,5.4,6.3a5.48,5.48,0,0,1-1.6,3.4,6.61,6.61,0,0,0-1.2,3.7c-1.8,21.7-2.5,34.51-2.5,43.81s2.1,11.9,10.3,11.9a55,55,0,0,0,19.3-3.2,80.24,80.24,0,0,0,18.8-9.1,1,1,0,0,1,.7-.2.46.46,0,0,1,.5.4c0,.2,0,.2-.2.5-5.2,6.4-12,12.1-18.8,15.3-7,3.4-13.4,5.7-20.8,5.7-14.6,0-20.3-4.5-20.3-23.3,0-12.4,1-31.41,1.4-45.41.1-2.7.1-3.4.1-3.8,0-2.3-.3-3.2-1.4-4.1a12,12,0,0,0-4.4-2c-.4-.1-.5-.3-.5-.6a.68.68,0,0,1,.4-.6A16.62,16.62,0,0,1,60.81,12.52Z"/><path class="cls-2" d="M120.42,150.13c-2.4,0-4.6-1.5-6.4-4.2-3.2-5.1-5.2-12.7-5.2-21.3,0-7.5,1.1-15.61,3.8-27.21,1.8-8.1,2.8-14.4,2.8-16.9a21.43,21.43,0,0,0-.6-5.9,3,3,0,0,1-.2-1,.43.43,0,0,1,.4-.4,1.62,1.62,0,0,1,1,.4c7,5.5,9.5,9.8,9.5,14.6,0,2-1.5,6.3-3.6,12.6-3,8.7-5.2,15-5.2,21.91,0,5.4.4,5.9,1.6,5.9.8,0,1.2-.5,2-1.9,1.6-2.9,5-10.4,7-15.1.2-.5.3-.7.61-.7s.39.3.39,1c-.89,4.4-2.5,12.5-3.2,17.4a45.73,45.73,0,0,0-.5,5.2,38.19,38.19,0,0,0,.5,6.9c.2,1.2.31,1.8.4,2.9C125.52,147.73,123.73,150.13,120.42,150.13ZM169,90.42a14.69,14.69,0,0,0,4.7-1.4c5.9.1,9,2.9,9,5s-1.3,2.9-4.4,3.5c-3.3.6-5.9,1.1-9.2,1.8.1,8.91.3,17.2.5,24.61.1,2.1.1,4.6.1,6.3a64.09,64.09,0,0,1,9.8,4.8c3.4,2.5,5,5,5,7.9s-1.8,4.5-4.1,4.5h-1.5c-1.4,0-2.4-.3-4.3-2.2a39.54,39.54,0,0,0-7-5.7c-3.4,5.3-8.6,7.6-16.6,7.6-7.8,0-14.2-4.5-14.2-10.6,0-5.5,6.7-9.7,13.5-9.7a58.49,58.49,0,0,1,9.7.9,77.84,77.84,0,0,0,.3-8.3c0-4.2,0-10.61-.2-18-3.1.8-5.8,1.5-7.9,2.1-3.8,1.21-4.9,1.4-6.1,1.4-1,0-1.4-.1-5.7-1.4a12,12,0,0,0-3.4-.5,6.45,6.45,0,0,0-1.5.11,4.28,4.28,0,0,1-.9.09c-.2,0-.3-.09,0-.4a28.31,28.31,0,0,1,7.8-5,62.36,62.36,0,0,1,9.6-3c2.7-.7,5.2-1.4,7.8-2.1-.1-3.4-.3-7-.5-10.5-.1-2.3-.4-3.3-1.8-3.9a14.57,14.57,0,0,0-5.1-.9c-.2,0-.4-.1-.4-.5s.1-.5.6-.8c3.4-2.2,5.7-2.8,7.3-2.8a16.3,16.3,0,0,1,6.8,2.1c2.8,1.4,3.3,2.3,3.3,3.6a8,8,0,0,1-.5,2.3,31.15,31.15,0,0,0-.5,6.8Zm-22.7,41c-3.7,0-7.2,1.5-7.2,4.5,0,3.3,3.3,4.9,8.1,4.9,7,0,9.7-2.8,10.8-6.6C153.43,132.33,150.23,131.43,146.33,131.43Zm34.3-59.11c3.3,2.3,4.3,5,4.3,7.2a4,4,0,0,1-4.2,4.4,3.82,3.82,0,0,1-3.8-3.1c-1.1-4-3.5-8.3-6.9-10.7-.4-.3-.7-.5-.7-.8s.3-.4.9-.4A20.76,20.76,0,0,1,180.63,72.32Zm8.6-8.2c3.8,1.9,5.3,3.9,5.3,7a3.66,3.66,0,0,1-3.7,4c-1.9,0-2.9-.5-4.1-3.1a18.51,18.51,0,0,0-7.7-8.6c-.6-.3-.9-.5-.9-.9s.4-.5,1.1-.5A22,22,0,0,1,189.23,64.12Z"/><path class="cls-2" d="M83.32,126.74a9.21,9.21,0,0,1,4.5,1c2.3,1.1,3.1,2.2,3.1,3.6,0,1.8-.9,2.5-2.9,3.4-4.2,1.9-9.2,4-13.71,5.8-4.1,12.4-6.8,19.8-8.5,24.6-2.7,7.4-5.3,13.8-7,17.4-3,6.5-5.3,8.1-7.9,8.1-3.1,0-4.9-4-4.9-8.5a10,10,0,0,1,2.2-6.9,59.74,59.74,0,0,0,4.6-6.6,142.48,142.48,0,0,0,12.5-24.7c-7.2,2.6-9.3,3.2-11.3,3.2-1.8,0-3.9-1-6-2.8a24.44,24.44,0,0,1-5.4-6.8,1.9,1.9,0,0,1-.3-.9c0-.2.1-.4.3-.4s.2,0,.6.2a11.07,11.07,0,0,0,5,.9c3.9,0,7.5-.8,13.9-3,2.5-.8,4.8-1.7,6.8-2.4.5-2.2.9-4.5,1.3-6.9a40.38,40.38,0,0,0,.5-5.9c0-1.5-.3-2.3-1.1-2.8a26.45,26.45,0,0,0-4.1-1.8c-.3-.1-.4-.2-.4-.5a.72.72,0,0,1,.4-.6,14,14,0,0,1,6.7-1.9c1.4,0,3,.5,6.5,2.7,2.2,1.4,3.2,2.6,3.2,3.8a5.66,5.66,0,0,1-1,3.1,15.63,15.63,0,0,0-1.3,3.3c-.5,1.5-1,3-1.4,4.4a32.35,32.35,0,0,0,4-2.1Zm-1.6,43.9c.19,0,.5.3.5.9a13.81,13.81,0,0,0,.5,3.5c1.2,3.5,5.7,6.4,14.7,6.4a39.19,39.19,0,0,0,10.5-1.4c7.2,0,11.6,2.5,11.6,6.8,0,4.1-3.4,5.3-14.8,5.3-15.9,0-24.2-5.8-24.2-15.7a20.56,20.56,0,0,1,.59-5.2C81.32,170.74,81.41,170.64,81.72,170.64Zm6.6-10.9c-.2,0-.4-.1-.4-.3s.1-.4.4-.7a75.18,75.18,0,0,0,5.2-5.5c.5-.7.4-.8-.1-.8a28.72,28.72,0,0,1-5.8-.7,15.6,15.6,0,0,0-3.1-.3,6.19,6.19,0,0,0-1.2.1c-.6.1-.8.1-.8-.1s0-.3.8-1.1a15.7,15.7,0,0,1,4.5-3.1c4.1-1.7,9.5-3,16-4.3a18,18,0,0,1,2.2-.2c6.9,1.3,9.8,2.9,9.8,6.5,0,2.7-1.7,3.4-6.4,3.4a22.76,22.76,0,0,0-8.6,1.3c-3.6,1-8,3.4-11.8,5.6A1.23,1.23,0,0,1,88.32,159.74Z"/></g></g></svg>