<?xml version="1.0" encoding="utf-8"?>
<!-- Generator: Adobe Illustrator 23.0.3, SVG Export Plug-In . SVG Version: 6.00 Build 0)  -->
<svg version="1.1" id="_x32_" xmlns="http://www.w3.org/2000/svg" xmlns:xlink="http://www.w3.org/1999/xlink" x="0px" y="0px"
	 viewBox="0 0 512 512" style="enable-background:new 0 0 512 512;" xml:space="preserve">
<style type="text/css">
	.st0{fill:#339933;}
</style>
<g>
	<path class="st0" d="M445.2,438.3c-10.7-20.7-27.5-34.1-43.9-43.2c-16.4-9.1-32.8-14.3-43.6-18.4c-8.5-3.2-17.5-7.3-23.5-11.5
		c-3-2.1-5.2-4.2-6.3-5.8c-1.2-1.6-1.2-2.3-1.3-2.8c0-8.1,0-18.1,0-31.2c5.3-6,11.8-13.5,17.8-23.1c6.3-10,11.9-22.5,15.3-37.5
		c2-1,3.9-2.1,5.8-3.4c5.9-4,10.8-9.9,14.9-17.6c4.1-7.7,7.6-17.4,11.3-30.4c2.4-8.3,3.5-15.1,3.5-21c0-5.5-1-10.5-3.4-14.8
		c-1.7-3.2-4.2-5.8-6.7-7.5c-2.5-1.7-4.8-2.7-6.8-3.4c0-0.2,0-0.5,0-0.7c0-6.5,1.3-17.4,2.7-27.3c0.9-6.1,1.4-12.6,1.4-19.2
		c0-10.2-1.3-21-4.5-31.6c-4.9-15.9-14.6-31.6-30.9-43.4c-16.2-11.8-38.3-19.6-67.6-21.9c-32.6-4-51.9-7.7-67.5-11.3
		c-15.6-3.6-27.8-7.2-45.7-10.7v0c-1-0.2-2.1-0.3-3-0.3c-2.3,0-4.9,0.6-6.9,1.7c-3.9,2.1-5.9,5-7.3,7.5c-2.2,4.4-2.9,8.3-3.6,12.5
		c-0.9,6.2-1.3,12.7-1.8,18.1c-0.2,2.7-0.5,5.1-0.9,6.8c-0.2,0.8-0.3,1.5-0.4,1.8l-0.1,0.3c-15.7,27.6-19.6,56.3-19.6,78.6
		c0,17.7,2.5,31.6,3.7,37.7c0.4,2.3,0.6,3.8,0.7,5.1c-1.3,0.9-2.6,1.9-3.9,3.3c-2.4,2.4-4.9,5.7-6.7,9.8c-1.8,4.1-2.8,9-2.8,14.5
		c0,4.3,0.6,8.8,2,13.8c4.8,17.9,10.8,30.4,18.3,39.4c5.6,6.8,12,11.2,18.3,14.2c3.5,15,9,27.4,15.3,37.5c6,9.6,12.4,17.1,17.8,23.1
		c0,13.1,0,23.2,0,31.2c0,0.2-0.1,1-1.4,2.8c-1.9,2.6-6.4,6.2-11.9,9.3c-5.5,3.1-11.9,5.9-17.6,7.9c-7.3,2.6-17.1,5.7-27.6,10.3
		c-15.8,6.8-33.6,16.6-47.6,32.9c-14.1,16.2-23.9,39-23.8,68.9c0,4.1,0.2,8.4,0.5,12.8l0.9,10.6h10.6h387.7l0.9-10.6
		c0.4-4.4,0.5-8.6,0.5-12.7C456.6,468.8,452.3,452,445.2,438.3z M433.5,488.9H78.5c0-0.1,0-0.1,0-0.2c0-16.7,3.4-29.5,8.8-39.8
		c8-15.5,20.6-26,34.6-33.8c13.9-7.8,28.8-12.5,40.3-16.6c8.9-3.2,19.3-7.7,28.2-13.9c4.5-3.1,8.6-6.7,12-11.1
		c3.3-4.4,6.1-10.1,6.1-16.7c0-9,0-20.2,0-35.7v-4.4l-3-3.3c-5.8-6.4-12.4-13.8-18.3-23.2c-5.9-9.4-11-20.8-13.6-35.7l-1.2-6.6
		l-6.3-2.3c-5.6-2.1-9.7-4.3-14.3-9.7c-4.5-5.4-9.4-14.7-13.7-30.6c-0.9-3.2-1.2-5.8-1.2-7.8c0-2.5,0.5-4.1,0.9-5.3
		c0.7-1.7,1.7-2.6,2.6-3.3l1-0.6l0,0l1.2-0.4l1.3-0.9c2-1.3,3.9-3.6,5-6.3c1.1-2.7,1.6-5.6,1.6-9.1c0-3.1-0.4-6.7-1.3-11.3
		c-1.1-5.3-3.2-17.5-3.2-33.1c0-19.7,3.5-44.5,16.7-67.4c1.6-2.8,2.2-5.1,2.7-7.5c0.9-4.1,1.3-8.2,1.7-12.6
		c0.5-5.7,0.9-11.4,1.6-15.4c13.5,2.9,24.2,5.9,38.3,9.1c16.3,3.8,36.7,7.7,69.9,11.8l0.2,0l0.3,0c17.6,1.4,31.4,4.9,42.2,9.6
		c16.2,7.2,25.6,16.9,31.7,28c6,11.1,8.3,23.8,8.3,36.4c0,5.4-0.4,10.8-1.2,15.9c-1.5,10.4-2.9,21.6-3,30.6c0,2.8,0.1,5.5,0.6,8.2
		c0.3,1.4,0.6,2.8,1.3,4.4c0.7,1.6,1.7,3.5,3.7,5.5l0,0c2.3,2,4.1,2.6,5.3,3.1c2.3,0.8,3.5,1,4.4,1.3l1,0.4c0.1,0.3,0.4,1.3,0.4,3.5
		c0,2.9-0.6,7.8-2.6,14.7c-4.6,16.3-8.8,25.6-12.3,30.4c-1.7,2.4-3.2,3.8-4.9,5c-1.7,1.2-3.6,2.1-6.4,3.1l-6.3,2.3l-1.2,6.6
		c-2.6,14.8-7.7,26.2-13.6,35.7c-5.9,9.4-12.5,16.8-18.3,23.2l-3,3.3v4.4c0,15.4,0,26.7,0,35.7c0,6.4,2.5,12.1,5.7,16.5
		c4.9,6.6,11.5,11.3,18.6,15.3c7,4,14.7,7.2,21.8,9.9c7.8,2.9,16.9,5.9,26.3,10c14.1,6.1,28.6,14.4,39.3,26.7
		c10.6,12.4,18.1,28.6,18.2,53.6C433.5,488.7,433.5,488.8,433.5,488.9z"/>
</g>
</svg>
