<?xml version="1.0" encoding="utf-8"?>
<!-- Generator: Adobe Illustrator 23.0.3, SVG Export Plug-In . SVG Version: 6.00 Build 0)  -->
<svg version="1.1" id="レイヤー_1" xmlns:ev="http://www.w3.org/2001/xml-events"
	 xmlns="http://www.w3.org/2000/svg" xmlns:xlink="http://www.w3.org/1999/xlink" x="0px" y="0px" viewBox="0 0 264 264"
	 style="enable-background:new 0 0 264 264;" xml:space="preserve">
<style type="text/css">
	.st0{fill:#CC6633;}
</style>
<desc></desc>
<g>
	<g>
		<rect id="p" x="26.4" y="26.4" class="st0" width="8.5" height="8.5"/>
	</g>
	<g>
		<rect x="26.4" y="34.9" class="st0" width="8.5" height="8.5"/>
	</g>
	<g>
		<rect x="26.4" y="43.3" class="st0" width="8.5" height="8.5"/>
	</g>
	<g>
		<rect x="26.4" y="51.8" class="st0" width="8.5" height="8.5"/>
	</g>
	<g>
		<rect x="26.4" y="60.2" class="st0" width="8.5" height="8.5"/>
	</g>
	<g>
		<rect x="26.4" y="68.6" class="st0" width="8.5" height="8.5"/>
	</g>
	<g>
		<rect x="26.4" y="77.1" class="st0" width="8.5" height="8.5"/>
	</g>
	<g>
		<rect x="26.4" y="94" class="st0" width="8.5" height="8.5"/>
	</g>
	<g>
		<rect x="26.4" y="119.4" class="st0" width="8.5" height="8.5"/>
	</g>
	<g>
		<rect x="26.4" y="127.8" class="st0" width="8.5" height="8.5"/>
	</g>
	<g>
		<rect x="26.4" y="178.5" class="st0" width="8.5" height="8.5"/>
	</g>
	<g>
		<rect x="26.4" y="186.9" class="st0" width="8.5" height="8.5"/>
	</g>
	<g>
		<rect x="26.4" y="195.4" class="st0" width="8.5" height="8.5"/>
	</g>
	<g>
		<rect x="26.4" y="203.8" class="st0" width="8.5" height="8.5"/>
	</g>
	<g>
		<rect x="26.4" y="212.2" class="st0" width="8.5" height="8.5"/>
	</g>
	<g>
		<rect x="26.4" y="220.7" class="st0" width="8.5" height="8.5"/>
	</g>
	<g>
		<rect x="26.4" y="229.1" class="st0" width="8.5" height="8.5"/>
	</g>
	<g>
		<rect x="34.9" y="26.4" class="st0" width="8.5" height="8.5"/>
	</g>
	<g>
		<rect x="34.9" y="77.1" class="st0" width="8.5" height="8.5"/>
	</g>
	<g>
		<rect x="34.9" y="94" class="st0" width="8.5" height="8.5"/>
	</g>
	<g>
		<rect x="34.9" y="102.4" class="st0" width="8.5" height="8.5"/>
	</g>
	<g>
		<rect x="34.9" y="110.9" class="st0" width="8.5" height="8.5"/>
	</g>
	<g>
		<rect x="34.9" y="136.2" class="st0" width="8.5" height="8.5"/>
	</g>
	<g>
		<rect x="34.9" y="144.6" class="st0" width="8.5" height="8.5"/>
	</g>
	<g>
		<rect x="34.9" y="153.1" class="st0" width="8.5" height="8.5"/>
	</g>
	<g>
		<rect x="34.9" y="161.6" class="st0" width="8.5" height="8.5"/>
	</g>
	<g>
		<rect x="34.9" y="178.5" class="st0" width="8.5" height="8.5"/>
	</g>
	<g>
		<rect x="34.9" y="229.1" class="st0" width="8.5" height="8.5"/>
	</g>
	<g>
		<rect x="43.3" y="26.4" class="st0" width="8.5" height="8.5"/>
	</g>
	<g>
		<rect x="43.3" y="43.3" class="st0" width="8.5" height="8.5"/>
	</g>
	<g>
		<rect x="43.3" y="51.8" class="st0" width="8.5" height="8.5"/>
	</g>
	<g>
		<rect x="43.3" y="60.2" class="st0" width="8.5" height="8.5"/>
	</g>
	<g>
		<rect x="43.3" y="77.1" class="st0" width="8.5" height="8.5"/>
	</g>
	<g>
		<rect x="43.3" y="94" class="st0" width="8.5" height="8.5"/>
	</g>
	<g>
		<rect x="43.3" y="110.9" class="st0" width="8.5" height="8.5"/>
	</g>
	<g>
		<rect x="43.3" y="144.6" class="st0" width="8.5" height="8.5"/>
	</g>
	<g>
		<rect x="43.3" y="153.1" class="st0" width="8.5" height="8.5"/>
	</g>
	<g>
		<rect x="43.3" y="161.6" class="st0" width="8.5" height="8.5"/>
	</g>
	<g>
		<rect x="43.3" y="178.5" class="st0" width="8.5" height="8.5"/>
	</g>
	<g>
		<rect x="43.3" y="195.4" class="st0" width="8.5" height="8.5"/>
	</g>
	<g>
		<rect x="43.3" y="203.8" class="st0" width="8.5" height="8.5"/>
	</g>
	<g>
		<rect x="43.3" y="212.2" class="st0" width="8.5" height="8.5"/>
	</g>
	<g>
		<rect x="43.3" y="229.1" class="st0" width="8.5" height="8.5"/>
	</g>
	<g>
		<rect x="51.8" y="26.4" class="st0" width="8.5" height="8.5"/>
	</g>
	<g>
		<rect x="51.8" y="43.3" class="st0" width="8.5" height="8.5"/>
	</g>
	<g>
		<rect x="51.8" y="51.8" class="st0" width="8.5" height="8.5"/>
	</g>
	<g>
		<rect x="51.8" y="60.2" class="st0" width="8.5" height="8.5"/>
	</g>
	<g>
		<rect x="51.8" y="77.1" class="st0" width="8.5" height="8.5"/>
	</g>
	<g>
		<rect x="51.8" y="94" class="st0" width="8.5" height="8.5"/>
	</g>
	<g>
		<rect x="51.8" y="102.4" class="st0" width="8.5" height="8.5"/>
	</g>
	<g>
		<rect x="51.8" y="119.4" class="st0" width="8.5" height="8.5"/>
	</g>
	<g>
		<rect x="51.8" y="127.8" class="st0" width="8.5" height="8.5"/>
	</g>
	<g>
		<rect x="51.8" y="153.1" class="st0" width="8.5" height="8.5"/>
	</g>
	<g>
		<rect x="51.8" y="178.5" class="st0" width="8.5" height="8.5"/>
	</g>
	<g>
		<rect x="51.8" y="195.4" class="st0" width="8.5" height="8.5"/>
	</g>
	<g>
		<rect x="51.8" y="203.8" class="st0" width="8.5" height="8.5"/>
	</g>
	<g>
		<rect x="51.8" y="212.2" class="st0" width="8.5" height="8.5"/>
	</g>
	<g>
		<rect x="51.8" y="229.1" class="st0" width="8.5" height="8.5"/>
	</g>
	<g>
		<rect x="60.2" y="26.4" class="st0" width="8.5" height="8.5"/>
	</g>
	<g>
		<rect x="60.2" y="43.3" class="st0" width="8.5" height="8.5"/>
	</g>
	<g>
		<rect x="60.2" y="51.8" class="st0" width="8.5" height="8.5"/>
	</g>
	<g>
		<rect x="60.2" y="60.2" class="st0" width="8.5" height="8.5"/>
	</g>
	<g>
		<rect x="60.2" y="77.1" class="st0" width="8.5" height="8.5"/>
	</g>
	<g>
		<rect x="60.2" y="94" class="st0" width="8.5" height="8.5"/>
	</g>
	<g>
		<rect x="60.2" y="110.9" class="st0" width="8.5" height="8.5"/>
	</g>
	<g>
		<rect x="60.2" y="127.8" class="st0" width="8.5" height="8.5"/>
	</g>
	<g>
		<rect x="60.2" y="161.6" class="st0" width="8.5" height="8.5"/>
	</g>
	<g>
		<rect x="60.2" y="178.5" class="st0" width="8.5" height="8.5"/>
	</g>
	<g>
		<rect x="60.2" y="195.4" class="st0" width="8.5" height="8.5"/>
	</g>
	<g>
		<rect x="60.2" y="203.8" class="st0" width="8.5" height="8.5"/>
	</g>
	<g>
		<rect x="60.2" y="212.2" class="st0" width="8.5" height="8.5"/>
	</g>
	<g>
		<rect x="60.2" y="229.1" class="st0" width="8.5" height="8.5"/>
	</g>
	<g>
		<rect x="68.6" y="26.4" class="st0" width="8.5" height="8.5"/>
	</g>
	<g>
		<rect x="68.6" y="77.1" class="st0" width="8.5" height="8.5"/>
	</g>
	<g>
		<rect x="68.6" y="110.9" class="st0" width="8.5" height="8.5"/>
	</g>
	<g>
		<rect x="68.6" y="127.8" class="st0" width="8.5" height="8.5"/>
	</g>
	<g>
		<rect x="68.6" y="161.6" class="st0" width="8.5" height="8.5"/>
	</g>
	<g>
		<rect x="68.6" y="178.5" class="st0" width="8.5" height="8.5"/>
	</g>
	<g>
		<rect x="68.6" y="229.1" class="st0" width="8.5" height="8.5"/>
	</g>
	<g>
		<rect x="77.1" y="26.4" class="st0" width="8.5" height="8.5"/>
	</g>
	<g>
		<rect x="77.1" y="34.9" class="st0" width="8.5" height="8.5"/>
	</g>
	<g>
		<rect x="77.1" y="43.3" class="st0" width="8.5" height="8.5"/>
	</g>
	<g>
		<rect x="77.1" y="51.8" class="st0" width="8.5" height="8.5"/>
	</g>
	<g>
		<rect x="77.1" y="60.2" class="st0" width="8.5" height="8.5"/>
	</g>
	<g>
		<rect x="77.1" y="68.6" class="st0" width="8.5" height="8.5"/>
	</g>
	<g>
		<rect x="77.1" y="77.1" class="st0" width="8.5" height="8.5"/>
	</g>
	<g>
		<rect x="77.1" y="94" class="st0" width="8.5" height="8.5"/>
	</g>
	<g>
		<rect x="77.1" y="110.9" class="st0" width="8.5" height="8.5"/>
	</g>
	<g>
		<rect x="77.1" y="127.8" class="st0" width="8.5" height="8.5"/>
	</g>
	<g>
		<rect x="77.1" y="144.6" class="st0" width="8.5" height="8.5"/>
	</g>
	<g>
		<rect x="77.1" y="161.6" class="st0" width="8.5" height="8.5"/>
	</g>
	<g>
		<rect x="77.1" y="178.5" class="st0" width="8.5" height="8.5"/>
	</g>
	<g>
		<rect x="77.1" y="186.9" class="st0" width="8.5" height="8.5"/>
	</g>
	<g>
		<rect x="77.1" y="195.4" class="st0" width="8.5" height="8.5"/>
	</g>
	<g>
		<rect x="77.1" y="203.8" class="st0" width="8.5" height="8.5"/>
	</g>
	<g>
		<rect x="77.1" y="212.2" class="st0" width="8.5" height="8.5"/>
	</g>
	<g>
		<rect x="77.1" y="220.7" class="st0" width="8.5" height="8.5"/>
	</g>
	<g>
		<rect x="77.1" y="229.1" class="st0" width="8.5" height="8.5"/>
	</g>
	<g>
		<rect x="85.5" y="94" class="st0" width="8.5" height="8.5"/>
	</g>
	<g>
		<rect x="85.5" y="119.4" class="st0" width="8.5" height="8.5"/>
	</g>
	<g>
		<rect x="85.5" y="144.6" class="st0" width="8.5" height="8.5"/>
	</g>
	<g>
		<rect x="85.5" y="161.6" class="st0" width="8.5" height="8.5"/>
	</g>
	<g>
		<rect x="94" y="34.9" class="st0" width="8.5" height="8.5"/>
	</g>
	<g>
		<rect x="94" y="51.8" class="st0" width="8.5" height="8.5"/>
	</g>
	<g>
		<rect x="94" y="68.6" class="st0" width="8.5" height="8.5"/>
	</g>
	<g>
		<rect x="94" y="77.1" class="st0" width="8.5" height="8.5"/>
	</g>
	<g>
		<rect x="94" y="94" class="st0" width="8.5" height="8.5"/>
	</g>
	<g>
		<rect x="94" y="102.4" class="st0" width="8.5" height="8.5"/>
	</g>
	<g>
		<rect x="94" y="110.9" class="st0" width="8.5" height="8.5"/>
	</g>
	<g>
		<rect x="94" y="119.4" class="st0" width="8.5" height="8.5"/>
	</g>
	<g>
		<rect x="94" y="144.6" class="st0" width="8.5" height="8.5"/>
	</g>
	<g>
		<rect x="94" y="153.1" class="st0" width="8.5" height="8.5"/>
	</g>
	<g>
		<rect x="94" y="170" class="st0" width="8.5" height="8.5"/>
	</g>
	<g>
		<rect x="94" y="178.5" class="st0" width="8.5" height="8.5"/>
	</g>
	<g>
		<rect x="94" y="195.4" class="st0" width="8.5" height="8.5"/>
	</g>
	<g>
		<rect x="94" y="203.8" class="st0" width="8.5" height="8.5"/>
	</g>
	<g>
		<rect x="94" y="212.2" class="st0" width="8.5" height="8.5"/>
	</g>
	<g>
		<rect x="94" y="220.7" class="st0" width="8.5" height="8.5"/>
	</g>
	<g>
		<rect x="94" y="229.1" class="st0" width="8.5" height="8.5"/>
	</g>
	<g>
		<rect x="102.4" y="43.3" class="st0" width="8.5" height="8.5"/>
	</g>
	<g>
		<rect x="102.4" y="68.6" class="st0" width="8.5" height="8.5"/>
	</g>
	<g>
		<rect x="102.4" y="85.5" class="st0" width="8.5" height="8.5"/>
	</g>
	<g>
		<rect x="102.4" y="119.4" class="st0" width="8.5" height="8.5"/>
	</g>
	<g>
		<rect x="102.4" y="127.8" class="st0" width="8.5" height="8.5"/>
	</g>
	<g>
		<rect x="102.4" y="136.2" class="st0" width="8.5" height="8.5"/>
	</g>
	<g>
		<rect x="102.4" y="153.1" class="st0" width="8.5" height="8.5"/>
	</g>
	<g>
		<rect x="102.4" y="161.6" class="st0" width="8.5" height="8.5"/>
	</g>
	<g>
		<rect x="102.4" y="195.4" class="st0" width="8.5" height="8.5"/>
	</g>
	<g>
		<rect x="102.4" y="212.2" class="st0" width="8.5" height="8.5"/>
	</g>
	<g>
		<rect x="102.4" y="220.7" class="st0" width="8.5" height="8.5"/>
	</g>
	<g>
		<rect x="110.9" y="34.9" class="st0" width="8.5" height="8.5"/>
	</g>
	<g>
		<rect x="110.9" y="43.3" class="st0" width="8.5" height="8.5"/>
	</g>
	<g>
		<rect x="110.9" y="51.8" class="st0" width="8.5" height="8.5"/>
	</g>
	<g>
		<rect x="110.9" y="68.6" class="st0" width="8.5" height="8.5"/>
	</g>
	<g>
		<rect x="110.9" y="77.1" class="st0" width="8.5" height="8.5"/>
	</g>
	<g>
		<rect x="110.9" y="85.5" class="st0" width="8.5" height="8.5"/>
	</g>
	<g>
		<rect x="110.9" y="110.9" class="st0" width="8.5" height="8.5"/>
	</g>
	<g>
		<rect x="110.9" y="119.4" class="st0" width="8.5" height="8.5"/>
	</g>
	<g>
		<rect x="110.9" y="161.6" class="st0" width="8.5" height="8.5"/>
	</g>
	<g>
		<rect x="110.9" y="178.5" class="st0" width="8.5" height="8.5"/>
	</g>
	<g>
		<rect x="110.9" y="186.9" class="st0" width="8.5" height="8.5"/>
	</g>
	<g>
		<rect x="110.9" y="220.7" class="st0" width="8.5" height="8.5"/>
	</g>
	<g>
		<rect x="119.4" y="26.4" class="st0" width="8.5" height="8.5"/>
	</g>
	<g>
		<rect x="119.4" y="43.3" class="st0" width="8.5" height="8.5"/>
	</g>
	<g>
		<rect x="119.4" y="60.2" class="st0" width="8.5" height="8.5"/>
	</g>
	<g>
		<rect x="119.4" y="85.5" class="st0" width="8.5" height="8.5"/>
	</g>
	<g>
		<rect x="119.4" y="94" class="st0" width="8.5" height="8.5"/>
	</g>
	<g>
		<rect x="119.4" y="102.4" class="st0" width="8.5" height="8.5"/>
	</g>
	<g>
		<rect x="119.4" y="136.2" class="st0" width="8.5" height="8.5"/>
	</g>
	<g>
		<rect x="119.4" y="170" class="st0" width="8.5" height="8.5"/>
	</g>
	<g>
		<rect x="119.4" y="203.8" class="st0" width="8.5" height="8.5"/>
	</g>
	<g>
		<rect x="119.4" y="220.7" class="st0" width="8.5" height="8.5"/>
	</g>
	<g>
		<rect x="127.8" y="43.3" class="st0" width="8.5" height="8.5"/>
	</g>
	<g>
		<rect x="127.8" y="51.8" class="st0" width="8.5" height="8.5"/>
	</g>
	<g>
		<rect x="127.8" y="68.6" class="st0" width="8.5" height="8.5"/>
	</g>
	<g>
		<rect x="127.8" y="77.1" class="st0" width="8.5" height="8.5"/>
	</g>
	<g>
		<rect x="127.8" y="94" class="st0" width="8.5" height="8.5"/>
	</g>
	<g>
		<rect x="127.8" y="102.4" class="st0" width="8.5" height="8.5"/>
	</g>
	<g>
		<rect x="127.8" y="110.9" class="st0" width="8.5" height="8.5"/>
	</g>
	<g>
		<rect x="127.8" y="161.6" class="st0" width="8.5" height="8.5"/>
	</g>
	<g>
		<rect x="127.8" y="195.4" class="st0" width="8.5" height="8.5"/>
	</g>
	<g>
		<rect x="127.8" y="212.2" class="st0" width="8.5" height="8.5"/>
	</g>
	<g>
		<rect x="127.8" y="220.7" class="st0" width="8.5" height="8.5"/>
	</g>
	<g>
		<rect x="136.2" y="51.8" class="st0" width="8.5" height="8.5"/>
	</g>
	<g>
		<rect x="136.2" y="60.2" class="st0" width="8.5" height="8.5"/>
	</g>
	<g>
		<rect x="136.2" y="94" class="st0" width="8.5" height="8.5"/>
	</g>
	<g>
		<rect x="136.2" y="110.9" class="st0" width="8.5" height="8.5"/>
	</g>
	<g>
		<rect x="136.2" y="127.8" class="st0" width="8.5" height="8.5"/>
	</g>
	<g>
		<rect x="136.2" y="161.6" class="st0" width="8.5" height="8.5"/>
	</g>
	<g>
		<rect x="136.2" y="178.5" class="st0" width="8.5" height="8.5"/>
	</g>
	<g>
		<rect x="136.2" y="195.4" class="st0" width="8.5" height="8.5"/>
	</g>
	<g>
		<rect x="136.2" y="229.1" class="st0" width="8.5" height="8.5"/>
	</g>
	<g>
		<rect x="144.6" y="26.4" class="st0" width="8.5" height="8.5"/>
	</g>
	<g>
		<rect x="144.6" y="34.9" class="st0" width="8.5" height="8.5"/>
	</g>
	<g>
		<rect x="144.6" y="51.8" class="st0" width="8.5" height="8.5"/>
	</g>
	<g>
		<rect x="144.6" y="77.1" class="st0" width="8.5" height="8.5"/>
	</g>
	<g>
		<rect x="144.6" y="85.5" class="st0" width="8.5" height="8.5"/>
	</g>
	<g>
		<rect x="144.6" y="94" class="st0" width="8.5" height="8.5"/>
	</g>
	<g>
		<rect x="144.6" y="102.4" class="st0" width="8.5" height="8.5"/>
	</g>
	<g>
		<rect x="144.6" y="110.9" class="st0" width="8.5" height="8.5"/>
	</g>
	<g>
		<rect x="144.6" y="127.8" class="st0" width="8.5" height="8.5"/>
	</g>
	<g>
		<rect x="144.6" y="144.6" class="st0" width="8.5" height="8.5"/>
	</g>
	<g>
		<rect x="144.6" y="153.1" class="st0" width="8.5" height="8.5"/>
	</g>
	<g>
		<rect x="144.6" y="161.6" class="st0" width="8.5" height="8.5"/>
	</g>
	<g>
		<rect x="144.6" y="170" class="st0" width="8.5" height="8.5"/>
	</g>
	<g>
		<rect x="144.6" y="186.9" class="st0" width="8.5" height="8.5"/>
	</g>
	<g>
		<rect x="144.6" y="195.4" class="st0" width="8.5" height="8.5"/>
	</g>
	<g>
		<rect x="144.6" y="203.8" class="st0" width="8.5" height="8.5"/>
	</g>
	<g>
		<rect x="144.6" y="212.2" class="st0" width="8.5" height="8.5"/>
	</g>
	<g>
		<rect x="144.6" y="229.1" class="st0" width="8.5" height="8.5"/>
	</g>
	<g>
		<rect x="153.1" y="34.9" class="st0" width="8.5" height="8.5"/>
	</g>
	<g>
		<rect x="153.1" y="51.8" class="st0" width="8.5" height="8.5"/>
	</g>
	<g>
		<rect x="153.1" y="68.6" class="st0" width="8.5" height="8.5"/>
	</g>
	<g>
		<rect x="153.1" y="85.5" class="st0" width="8.5" height="8.5"/>
	</g>
	<g>
		<rect x="153.1" y="94" class="st0" width="8.5" height="8.5"/>
	</g>
	<g>
		<rect x="153.1" y="110.9" class="st0" width="8.5" height="8.5"/>
	</g>
	<g>
		<rect x="153.1" y="119.4" class="st0" width="8.5" height="8.5"/>
	</g>
	<g>
		<rect x="153.1" y="127.8" class="st0" width="8.5" height="8.5"/>
	</g>
	<g>
		<rect x="153.1" y="144.6" class="st0" width="8.5" height="8.5"/>
	</g>
	<g>
		<rect x="153.1" y="153.1" class="st0" width="8.5" height="8.5"/>
	</g>
	<g>
		<rect x="153.1" y="161.6" class="st0" width="8.5" height="8.5"/>
	</g>
	<g>
		<rect x="153.1" y="195.4" class="st0" width="8.5" height="8.5"/>
	</g>
	<g>
		<rect x="153.1" y="212.2" class="st0" width="8.5" height="8.5"/>
	</g>
	<g>
		<rect x="153.1" y="220.7" class="st0" width="8.5" height="8.5"/>
	</g>
	<g>
		<rect x="161.6" y="26.4" class="st0" width="8.5" height="8.5"/>
	</g>
	<g>
		<rect x="161.6" y="34.9" class="st0" width="8.5" height="8.5"/>
	</g>
	<g>
		<rect x="161.6" y="60.2" class="st0" width="8.5" height="8.5"/>
	</g>
	<g>
		<rect x="161.6" y="68.6" class="st0" width="8.5" height="8.5"/>
	</g>
	<g>
		<rect x="161.6" y="77.1" class="st0" width="8.5" height="8.5"/>
	</g>
	<g>
		<rect x="161.6" y="102.4" class="st0" width="8.5" height="8.5"/>
	</g>
	<g>
		<rect x="161.6" y="110.9" class="st0" width="8.5" height="8.5"/>
	</g>
	<g>
		<rect x="161.6" y="136.2" class="st0" width="8.5" height="8.5"/>
	</g>
	<g>
		<rect x="161.6" y="153.1" class="st0" width="8.5" height="8.5"/>
	</g>
	<g>
		<rect x="161.6" y="161.6" class="st0" width="8.5" height="8.5"/>
	</g>
	<g>
		<rect x="161.6" y="170" class="st0" width="8.5" height="8.5"/>
	</g>
	<g>
		<rect x="161.6" y="178.5" class="st0" width="8.5" height="8.5"/>
	</g>
	<g>
		<rect x="161.6" y="186.9" class="st0" width="8.5" height="8.5"/>
	</g>
	<g>
		<rect x="161.6" y="195.4" class="st0" width="8.5" height="8.5"/>
	</g>
	<g>
		<rect x="161.6" y="220.7" class="st0" width="8.5" height="8.5"/>
	</g>
	<g>
		<rect x="170" y="94" class="st0" width="8.5" height="8.5"/>
	</g>
	<g>
		<rect x="170" y="127.8" class="st0" width="8.5" height="8.5"/>
	</g>
	<g>
		<rect x="170" y="153.1" class="st0" width="8.5" height="8.5"/>
	</g>
	<g>
		<rect x="170" y="161.6" class="st0" width="8.5" height="8.5"/>
	</g>
	<g>
		<rect x="170" y="195.4" class="st0" width="8.5" height="8.5"/>
	</g>
	<g>
		<rect x="170" y="203.8" class="st0" width="8.5" height="8.5"/>
	</g>
	<g>
		<rect x="178.5" y="26.4" class="st0" width="8.5" height="8.5"/>
	</g>
	<g>
		<rect x="178.5" y="34.9" class="st0" width="8.5" height="8.5"/>
	</g>
	<g>
		<rect x="178.5" y="43.3" class="st0" width="8.5" height="8.5"/>
	</g>
	<g>
		<rect x="178.5" y="51.8" class="st0" width="8.5" height="8.5"/>
	</g>
	<g>
		<rect x="178.5" y="60.2" class="st0" width="8.5" height="8.5"/>
	</g>
	<g>
		<rect x="178.5" y="68.6" class="st0" width="8.5" height="8.5"/>
	</g>
	<g>
		<rect x="178.5" y="77.1" class="st0" width="8.5" height="8.5"/>
	</g>
	<g>
		<rect x="178.5" y="119.4" class="st0" width="8.5" height="8.5"/>
	</g>
	<g>
		<rect x="178.5" y="127.8" class="st0" width="8.5" height="8.5"/>
	</g>
	<g>
		<rect x="178.5" y="153.1" class="st0" width="8.5" height="8.5"/>
	</g>
	<g>
		<rect x="178.5" y="161.6" class="st0" width="8.5" height="8.5"/>
	</g>
	<g>
		<rect x="178.5" y="178.5" class="st0" width="8.5" height="8.5"/>
	</g>
	<g>
		<rect x="178.5" y="195.4" class="st0" width="8.5" height="8.5"/>
	</g>
	<g>
		<rect x="178.5" y="203.8" class="st0" width="8.5" height="8.5"/>
	</g>
	<g>
		<rect x="178.5" y="220.7" class="st0" width="8.5" height="8.5"/>
	</g>
	<g>
		<rect x="186.9" y="26.4" class="st0" width="8.5" height="8.5"/>
	</g>
	<g>
		<rect x="186.9" y="77.1" class="st0" width="8.5" height="8.5"/>
	</g>
	<g>
		<rect x="186.9" y="94" class="st0" width="8.5" height="8.5"/>
	</g>
	<g>
		<rect x="186.9" y="102.4" class="st0" width="8.5" height="8.5"/>
	</g>
	<g>
		<rect x="186.9" y="110.9" class="st0" width="8.5" height="8.5"/>
	</g>
	<g>
		<rect x="186.9" y="127.8" class="st0" width="8.5" height="8.5"/>
	</g>
	<g>
		<rect x="186.9" y="136.2" class="st0" width="8.5" height="8.5"/>
	</g>
	<g>
		<rect x="186.9" y="144.6" class="st0" width="8.5" height="8.5"/>
	</g>
	<g>
		<rect x="186.9" y="153.1" class="st0" width="8.5" height="8.5"/>
	</g>
	<g>
		<rect x="186.9" y="161.6" class="st0" width="8.5" height="8.5"/>
	</g>
	<g>
		<rect x="186.9" y="195.4" class="st0" width="8.5" height="8.5"/>
	</g>
	<g>
		<rect x="186.9" y="220.7" class="st0" width="8.5" height="8.5"/>
	</g>
	<g>
		<rect x="186.9" y="229.1" class="st0" width="8.5" height="8.5"/>
	</g>
	<g>
		<rect x="195.4" y="26.4" class="st0" width="8.5" height="8.5"/>
	</g>
	<g>
		<rect x="195.4" y="43.3" class="st0" width="8.5" height="8.5"/>
	</g>
	<g>
		<rect x="195.4" y="51.8" class="st0" width="8.5" height="8.5"/>
	</g>
	<g>
		<rect x="195.4" y="60.2" class="st0" width="8.5" height="8.5"/>
	</g>
	<g>
		<rect x="195.4" y="77.1" class="st0" width="8.5" height="8.5"/>
	</g>
	<g>
		<rect x="195.4" y="110.9" class="st0" width="8.5" height="8.5"/>
	</g>
	<g>
		<rect x="195.4" y="127.8" class="st0" width="8.5" height="8.5"/>
	</g>
	<g>
		<rect x="195.4" y="144.6" class="st0" width="8.5" height="8.5"/>
	</g>
	<g>
		<rect x="195.4" y="153.1" class="st0" width="8.5" height="8.5"/>
	</g>
	<g>
		<rect x="195.4" y="161.6" class="st0" width="8.5" height="8.5"/>
	</g>
	<g>
		<rect x="195.4" y="170" class="st0" width="8.5" height="8.5"/>
	</g>
	<g>
		<rect x="195.4" y="178.5" class="st0" width="8.5" height="8.5"/>
	</g>
	<g>
		<rect x="195.4" y="186.9" class="st0" width="8.5" height="8.5"/>
	</g>
	<g>
		<rect x="195.4" y="195.4" class="st0" width="8.5" height="8.5"/>
	</g>
	<g>
		<rect x="195.4" y="203.8" class="st0" width="8.5" height="8.5"/>
	</g>
	<g>
		<rect x="195.4" y="220.7" class="st0" width="8.5" height="8.5"/>
	</g>
	<g>
		<rect x="195.4" y="229.1" class="st0" width="8.5" height="8.5"/>
	</g>
	<g>
		<rect x="203.8" y="26.4" class="st0" width="8.5" height="8.5"/>
	</g>
	<g>
		<rect x="203.8" y="43.3" class="st0" width="8.5" height="8.5"/>
	</g>
	<g>
		<rect x="203.8" y="51.8" class="st0" width="8.5" height="8.5"/>
	</g>
	<g>
		<rect x="203.8" y="60.2" class="st0" width="8.5" height="8.5"/>
	</g>
	<g>
		<rect x="203.8" y="77.1" class="st0" width="8.5" height="8.5"/>
	</g>
	<g>
		<rect x="203.8" y="94" class="st0" width="8.5" height="8.5"/>
	</g>
	<g>
		<rect x="203.8" y="110.9" class="st0" width="8.5" height="8.5"/>
	</g>
	<g>
		<rect x="203.8" y="136.2" class="st0" width="8.5" height="8.5"/>
	</g>
	<g>
		<rect x="203.8" y="144.6" class="st0" width="8.5" height="8.5"/>
	</g>
	<g>
		<rect x="203.8" y="170" class="st0" width="8.5" height="8.5"/>
	</g>
	<g>
		<rect x="203.8" y="186.9" class="st0" width="8.5" height="8.5"/>
	</g>
	<g>
		<rect x="203.8" y="203.8" class="st0" width="8.5" height="8.5"/>
	</g>
	<g>
		<rect x="203.8" y="212.2" class="st0" width="8.5" height="8.5"/>
	</g>
	<g>
		<rect x="203.8" y="220.7" class="st0" width="8.5" height="8.5"/>
	</g>
	<g>
		<rect x="203.8" y="229.1" class="st0" width="8.5" height="8.5"/>
	</g>
	<g>
		<rect x="212.2" y="26.4" class="st0" width="8.5" height="8.5"/>
	</g>
	<g>
		<rect x="212.2" y="43.3" class="st0" width="8.5" height="8.5"/>
	</g>
	<g>
		<rect x="212.2" y="51.8" class="st0" width="8.5" height="8.5"/>
	</g>
	<g>
		<rect x="212.2" y="60.2" class="st0" width="8.5" height="8.5"/>
	</g>
	<g>
		<rect x="212.2" y="77.1" class="st0" width="8.5" height="8.5"/>
	</g>
	<g>
		<rect x="212.2" y="127.8" class="st0" width="8.5" height="8.5"/>
	</g>
	<g>
		<rect x="212.2" y="161.6" class="st0" width="8.5" height="8.5"/>
	</g>
	<g>
		<rect x="212.2" y="178.5" class="st0" width="8.5" height="8.5"/>
	</g>
	<g>
		<rect x="212.2" y="195.4" class="st0" width="8.5" height="8.5"/>
	</g>
	<g>
		<rect x="212.2" y="203.8" class="st0" width="8.5" height="8.5"/>
	</g>
	<g>
		<rect x="212.2" y="212.2" class="st0" width="8.5" height="8.5"/>
	</g>
	<g>
		<rect x="212.2" y="229.1" class="st0" width="8.5" height="8.5"/>
	</g>
	<g>
		<rect x="220.7" y="26.4" class="st0" width="8.5" height="8.5"/>
	</g>
	<g>
		<rect x="220.7" y="77.1" class="st0" width="8.5" height="8.5"/>
	</g>
	<g>
		<rect x="220.7" y="94" class="st0" width="8.5" height="8.5"/>
	</g>
	<g>
		<rect x="220.7" y="102.4" class="st0" width="8.5" height="8.5"/>
	</g>
	<g>
		<rect x="220.7" y="110.9" class="st0" width="8.5" height="8.5"/>
	</g>
	<g>
		<rect x="220.7" y="127.8" class="st0" width="8.5" height="8.5"/>
	</g>
	<g>
		<rect x="220.7" y="136.2" class="st0" width="8.5" height="8.5"/>
	</g>
	<g>
		<rect x="220.7" y="144.6" class="st0" width="8.5" height="8.5"/>
	</g>
	<g>
		<rect x="220.7" y="178.5" class="st0" width="8.5" height="8.5"/>
	</g>
	<g>
		<rect x="220.7" y="229.1" class="st0" width="8.5" height="8.5"/>
	</g>
	<g>
		<rect x="229.1" y="26.4" class="st0" width="8.5" height="8.5"/>
	</g>
	<g>
		<rect x="229.1" y="34.9" class="st0" width="8.5" height="8.5"/>
	</g>
	<g>
		<rect x="229.1" y="43.3" class="st0" width="8.5" height="8.5"/>
	</g>
	<g>
		<rect x="229.1" y="51.8" class="st0" width="8.5" height="8.5"/>
	</g>
	<g>
		<rect x="229.1" y="60.2" class="st0" width="8.5" height="8.5"/>
	</g>
	<g>
		<rect x="229.1" y="68.6" class="st0" width="8.5" height="8.5"/>
	</g>
	<g>
		<rect x="229.1" y="77.1" class="st0" width="8.5" height="8.5"/>
	</g>
	<g>
		<rect x="229.1" y="110.9" class="st0" width="8.5" height="8.5"/>
	</g>
	<g>
		<rect x="229.1" y="119.4" class="st0" width="8.5" height="8.5"/>
	</g>
	<g>
		<rect x="229.1" y="127.8" class="st0" width="8.5" height="8.5"/>
	</g>
	<g>
		<rect x="229.1" y="144.6" class="st0" width="8.5" height="8.5"/>
	</g>
	<g>
		<rect x="229.1" y="153.1" class="st0" width="8.5" height="8.5"/>
	</g>
	<g>
		<rect x="229.1" y="178.5" class="st0" width="8.5" height="8.5"/>
	</g>
	<g>
		<rect x="229.1" y="186.9" class="st0" width="8.5" height="8.5"/>
	</g>
	<g>
		<rect x="229.1" y="195.4" class="st0" width="8.5" height="8.5"/>
	</g>
	<g>
		<rect x="229.1" y="212.2" class="st0" width="8.5" height="8.5"/>
	</g>
	<g>
		<rect x="229.1" y="220.7" class="st0" width="8.5" height="8.5"/>
	</g>
	<g>
		<rect x="229.1" y="229.1" class="st0" width="8.5" height="8.5"/>
	</g>
</g>
</svg>
