<?xml version="1.0" encoding="utf-8"?>
<!-- Generator: Adobe Illustrator 23.0.3, SVG Export Plug-In . SVG Version: 6.00 Build 0)  -->
<svg version="1.1" id="レイヤー_1" xmlns:ev="http://www.w3.org/2001/xml-events"
	 xmlns="http://www.w3.org/2000/svg" xmlns:xlink="http://www.w3.org/1999/xlink" x="0px" y="0px" viewBox="0 0 264 264"
	 style="enable-background:new 0 0 264 264;" xml:space="preserve">
<style type="text/css">
	.st0{fill:#CC6633;}
</style>
<desc></desc>
<g>
	<g>
		<rect id="p" x="1" y="1" class="st0" width="10.6" height="10.6"/>
	</g>
	<g>
		<rect x="1" y="11.6" class="st0" width="10.6" height="10.6"/>
	</g>
	<g>
		<rect x="1" y="22.1" class="st0" width="10.6" height="10.6"/>
	</g>
	<g>
		<rect x="1" y="32.7" class="st0" width="10.6" height="10.6"/>
	</g>
	<g>
		<rect x="1" y="43.1" class="st0" width="10.6" height="10.6"/>
	</g>
	<g>
		<rect x="1" y="53.6" class="st0" width="10.6" height="10.6"/>
	</g>
	<g>
		<rect x="1" y="64.2" class="st0" width="10.6" height="10.6"/>
	</g>
	<g>
		<rect x="1" y="85.2" class="st0" width="10.6" height="10.6"/>
	</g>
	<g>
		<rect x="1" y="116.8" class="st0" width="10.6" height="10.6"/>
	</g>
	<g>
		<rect x="1" y="127.3" class="st0" width="10.6" height="10.6"/>
	</g>
	<g>
		<rect x="1" y="190.4" class="st0" width="10.6" height="10.6"/>
	</g>
	<g>
		<rect x="1" y="200.9" class="st0" width="10.6" height="10.6"/>
	</g>
	<g>
		<rect x="1" y="211.5" class="st0" width="10.6" height="10.6"/>
	</g>
	<g>
		<rect x="1" y="221.9" class="st0" width="10.6" height="10.6"/>
	</g>
	<g>
		<rect x="1" y="232.4" class="st0" width="10.6" height="10.6"/>
	</g>
	<g>
		<rect x="1" y="243" class="st0" width="10.6" height="10.6"/>
	</g>
	<g>
		<rect x="1" y="253.4" class="st0" width="10.6" height="10.6"/>
	</g>
	<g>
		<rect x="11.6" y="1" class="st0" width="10.6" height="10.6"/>
	</g>
	<g>
		<rect x="11.6" y="64.2" class="st0" width="10.6" height="10.6"/>
	</g>
	<g>
		<rect x="11.6" y="85.2" class="st0" width="10.6" height="10.6"/>
	</g>
	<g>
		<rect x="11.6" y="95.7" class="st0" width="10.6" height="10.6"/>
	</g>
	<g>
		<rect x="11.6" y="106.3" class="st0" width="10.6" height="10.6"/>
	</g>
	<g>
		<rect x="11.6" y="137.8" class="st0" width="10.6" height="10.6"/>
	</g>
	<g>
		<rect x="11.6" y="148.2" class="st0" width="10.6" height="10.6"/>
	</g>
	<g>
		<rect x="11.6" y="158.8" class="st0" width="10.6" height="10.6"/>
	</g>
	<g>
		<rect x="11.6" y="169.4" class="st0" width="10.6" height="10.6"/>
	</g>
	<g>
		<rect x="11.6" y="190.4" class="st0" width="10.6" height="10.6"/>
	</g>
	<g>
		<rect x="11.6" y="253.4" class="st0" width="10.6" height="10.6"/>
	</g>
	<g>
		<rect x="22.1" y="1" class="st0" width="10.6" height="10.6"/>
	</g>
	<g>
		<rect x="22.1" y="22.1" class="st0" width="10.6" height="10.6"/>
	</g>
	<g>
		<rect x="22.1" y="32.7" class="st0" width="10.6" height="10.6"/>
	</g>
	<g>
		<rect x="22.1" y="43.1" class="st0" width="10.6" height="10.6"/>
	</g>
	<g>
		<rect x="22.1" y="64.2" class="st0" width="10.6" height="10.6"/>
	</g>
	<g>
		<rect x="22.1" y="85.2" class="st0" width="10.6" height="10.6"/>
	</g>
	<g>
		<rect x="22.1" y="106.3" class="st0" width="10.6" height="10.6"/>
	</g>
	<g>
		<rect x="22.1" y="148.2" class="st0" width="10.6" height="10.6"/>
	</g>
	<g>
		<rect x="22.1" y="158.8" class="st0" width="10.6" height="10.6"/>
	</g>
	<g>
		<rect x="22.1" y="169.4" class="st0" width="10.6" height="10.6"/>
	</g>
	<g>
		<rect x="22.1" y="190.4" class="st0" width="10.6" height="10.6"/>
	</g>
	<g>
		<rect x="22.1" y="211.5" class="st0" width="10.6" height="10.6"/>
	</g>
	<g>
		<rect x="22.1" y="221.9" class="st0" width="10.6" height="10.6"/>
	</g>
	<g>
		<rect x="22.1" y="232.4" class="st0" width="10.6" height="10.6"/>
	</g>
	<g>
		<rect x="22.1" y="253.4" class="st0" width="10.6" height="10.6"/>
	</g>
	<g>
		<rect x="32.7" y="1" class="st0" width="10.6" height="10.6"/>
	</g>
	<g>
		<rect x="32.7" y="22.1" class="st0" width="10.6" height="10.6"/>
	</g>
	<g>
		<rect x="32.7" y="32.7" class="st0" width="10.6" height="10.6"/>
	</g>
	<g>
		<rect x="32.7" y="43.1" class="st0" width="10.6" height="10.6"/>
	</g>
	<g>
		<rect x="32.7" y="64.2" class="st0" width="10.6" height="10.6"/>
	</g>
	<g>
		<rect x="32.7" y="85.2" class="st0" width="10.6" height="10.6"/>
	</g>
	<g>
		<rect x="32.7" y="95.7" class="st0" width="10.6" height="10.6"/>
	</g>
	<g>
		<rect x="32.7" y="116.8" class="st0" width="10.6" height="10.6"/>
	</g>
	<g>
		<rect x="32.7" y="127.3" class="st0" width="10.6" height="10.6"/>
	</g>
	<g>
		<rect x="32.7" y="158.8" class="st0" width="10.6" height="10.6"/>
	</g>
	<g>
		<rect x="32.7" y="190.4" class="st0" width="10.6" height="10.6"/>
	</g>
	<g>
		<rect x="32.7" y="211.5" class="st0" width="10.6" height="10.6"/>
	</g>
	<g>
		<rect x="32.7" y="221.9" class="st0" width="10.6" height="10.6"/>
	</g>
	<g>
		<rect x="32.7" y="232.4" class="st0" width="10.6" height="10.6"/>
	</g>
	<g>
		<rect x="32.7" y="253.4" class="st0" width="10.6" height="10.6"/>
	</g>
	<g>
		<rect x="43.1" y="1" class="st0" width="10.6" height="10.6"/>
	</g>
	<g>
		<rect x="43.1" y="22.1" class="st0" width="10.6" height="10.6"/>
	</g>
	<g>
		<rect x="43.1" y="32.7" class="st0" width="10.6" height="10.6"/>
	</g>
	<g>
		<rect x="43.1" y="43.1" class="st0" width="10.6" height="10.6"/>
	</g>
	<g>
		<rect x="43.1" y="64.2" class="st0" width="10.6" height="10.6"/>
	</g>
	<g>
		<rect x="43.1" y="85.2" class="st0" width="10.6" height="10.6"/>
	</g>
	<g>
		<rect x="43.1" y="106.3" class="st0" width="10.6" height="10.6"/>
	</g>
	<g>
		<rect x="43.1" y="127.3" class="st0" width="10.6" height="10.6"/>
	</g>
	<g>
		<rect x="43.1" y="169.4" class="st0" width="10.6" height="10.6"/>
	</g>
	<g>
		<rect x="43.1" y="190.4" class="st0" width="10.6" height="10.6"/>
	</g>
	<g>
		<rect x="43.1" y="211.5" class="st0" width="10.6" height="10.6"/>
	</g>
	<g>
		<rect x="43.1" y="221.9" class="st0" width="10.6" height="10.6"/>
	</g>
	<g>
		<rect x="43.1" y="232.4" class="st0" width="10.6" height="10.6"/>
	</g>
	<g>
		<rect x="43.1" y="253.4" class="st0" width="10.6" height="10.6"/>
	</g>
	<g>
		<rect x="53.6" y="1" class="st0" width="10.6" height="10.6"/>
	</g>
	<g>
		<rect x="53.6" y="64.2" class="st0" width="10.6" height="10.6"/>
	</g>
	<g>
		<rect x="53.6" y="106.3" class="st0" width="10.6" height="10.6"/>
	</g>
	<g>
		<rect x="53.6" y="127.3" class="st0" width="10.6" height="10.6"/>
	</g>
	<g>
		<rect x="53.6" y="169.4" class="st0" width="10.6" height="10.6"/>
	</g>
	<g>
		<rect x="53.6" y="190.4" class="st0" width="10.6" height="10.6"/>
	</g>
	<g>
		<rect x="53.6" y="253.4" class="st0" width="10.6" height="10.6"/>
	</g>
	<g>
		<rect x="64.2" y="1" class="st0" width="10.6" height="10.6"/>
	</g>
	<g>
		<rect x="64.2" y="11.6" class="st0" width="10.6" height="10.6"/>
	</g>
	<g>
		<rect x="64.2" y="22.1" class="st0" width="10.6" height="10.6"/>
	</g>
	<g>
		<rect x="64.2" y="32.7" class="st0" width="10.6" height="10.6"/>
	</g>
	<g>
		<rect x="64.2" y="43.1" class="st0" width="10.6" height="10.6"/>
	</g>
	<g>
		<rect x="64.2" y="53.6" class="st0" width="10.6" height="10.6"/>
	</g>
	<g>
		<rect x="64.2" y="64.2" class="st0" width="10.6" height="10.6"/>
	</g>
	<g>
		<rect x="64.2" y="85.2" class="st0" width="10.6" height="10.6"/>
	</g>
	<g>
		<rect x="64.2" y="106.3" class="st0" width="10.6" height="10.6"/>
	</g>
	<g>
		<rect x="64.2" y="127.3" class="st0" width="10.6" height="10.6"/>
	</g>
	<g>
		<rect x="64.2" y="148.2" class="st0" width="10.6" height="10.6"/>
	</g>
	<g>
		<rect x="64.2" y="169.4" class="st0" width="10.6" height="10.6"/>
	</g>
	<g>
		<rect x="64.2" y="190.4" class="st0" width="10.6" height="10.6"/>
	</g>
	<g>
		<rect x="64.2" y="200.9" class="st0" width="10.6" height="10.6"/>
	</g>
	<g>
		<rect x="64.2" y="211.5" class="st0" width="10.6" height="10.6"/>
	</g>
	<g>
		<rect x="64.2" y="221.9" class="st0" width="10.6" height="10.6"/>
	</g>
	<g>
		<rect x="64.2" y="232.4" class="st0" width="10.6" height="10.6"/>
	</g>
	<g>
		<rect x="64.2" y="243" class="st0" width="10.6" height="10.6"/>
	</g>
	<g>
		<rect x="64.2" y="253.4" class="st0" width="10.6" height="10.6"/>
	</g>
	<g>
		<rect x="74.6" y="85.2" class="st0" width="10.6" height="10.6"/>
	</g>
	<g>
		<rect x="74.6" y="116.8" class="st0" width="10.6" height="10.6"/>
	</g>
	<g>
		<rect x="74.6" y="148.2" class="st0" width="10.6" height="10.6"/>
	</g>
	<g>
		<rect x="74.6" y="169.4" class="st0" width="10.6" height="10.6"/>
	</g>
	<g>
		<rect x="85.2" y="11.6" class="st0" width="10.6" height="10.6"/>
	</g>
	<g>
		<rect x="85.2" y="32.7" class="st0" width="10.6" height="10.6"/>
	</g>
	<g>
		<rect x="85.2" y="53.6" class="st0" width="10.6" height="10.6"/>
	</g>
	<g>
		<rect x="85.2" y="64.2" class="st0" width="10.6" height="10.6"/>
	</g>
	<g>
		<rect x="85.2" y="85.2" class="st0" width="10.6" height="10.6"/>
	</g>
	<g>
		<rect x="85.2" y="95.7" class="st0" width="10.6" height="10.6"/>
	</g>
	<g>
		<rect x="85.2" y="106.3" class="st0" width="10.6" height="10.6"/>
	</g>
	<g>
		<rect x="85.2" y="116.8" class="st0" width="10.6" height="10.6"/>
	</g>
	<g>
		<rect x="85.2" y="148.2" class="st0" width="10.6" height="10.6"/>
	</g>
	<g>
		<rect x="85.2" y="158.8" class="st0" width="10.6" height="10.6"/>
	</g>
	<g>
		<rect x="85.2" y="179.8" class="st0" width="10.6" height="10.6"/>
	</g>
	<g>
		<rect x="85.2" y="190.4" class="st0" width="10.6" height="10.6"/>
	</g>
	<g>
		<rect x="85.2" y="211.5" class="st0" width="10.6" height="10.6"/>
	</g>
	<g>
		<rect x="85.2" y="221.9" class="st0" width="10.6" height="10.6"/>
	</g>
	<g>
		<rect x="85.2" y="232.4" class="st0" width="10.6" height="10.6"/>
	</g>
	<g>
		<rect x="85.2" y="243" class="st0" width="10.6" height="10.6"/>
	</g>
	<g>
		<rect x="85.2" y="253.4" class="st0" width="10.6" height="10.6"/>
	</g>
	<g>
		<rect x="95.7" y="22.1" class="st0" width="10.6" height="10.6"/>
	</g>
	<g>
		<rect x="95.7" y="53.6" class="st0" width="10.6" height="10.6"/>
	</g>
	<g>
		<rect x="95.7" y="74.6" class="st0" width="10.6" height="10.6"/>
	</g>
	<g>
		<rect x="95.7" y="116.8" class="st0" width="10.6" height="10.6"/>
	</g>
	<g>
		<rect x="95.7" y="127.3" class="st0" width="10.6" height="10.6"/>
	</g>
	<g>
		<rect x="95.7" y="137.8" class="st0" width="10.6" height="10.6"/>
	</g>
	<g>
		<rect x="95.7" y="158.8" class="st0" width="10.6" height="10.6"/>
	</g>
	<g>
		<rect x="95.7" y="169.4" class="st0" width="10.6" height="10.6"/>
	</g>
	<g>
		<rect x="95.7" y="211.5" class="st0" width="10.6" height="10.6"/>
	</g>
	<g>
		<rect x="95.7" y="232.4" class="st0" width="10.6" height="10.6"/>
	</g>
	<g>
		<rect x="95.7" y="243" class="st0" width="10.6" height="10.6"/>
	</g>
	<g>
		<rect x="106.3" y="11.6" class="st0" width="10.6" height="10.6"/>
	</g>
	<g>
		<rect x="106.3" y="22.1" class="st0" width="10.6" height="10.6"/>
	</g>
	<g>
		<rect x="106.3" y="32.7" class="st0" width="10.6" height="10.6"/>
	</g>
	<g>
		<rect x="106.3" y="53.6" class="st0" width="10.6" height="10.6"/>
	</g>
	<g>
		<rect x="106.3" y="64.2" class="st0" width="10.6" height="10.6"/>
	</g>
	<g>
		<rect x="106.3" y="74.6" class="st0" width="10.6" height="10.6"/>
	</g>
	<g>
		<rect x="106.3" y="106.3" class="st0" width="10.6" height="10.6"/>
	</g>
	<g>
		<rect x="106.3" y="116.8" class="st0" width="10.6" height="10.6"/>
	</g>
	<g>
		<rect x="106.3" y="169.4" class="st0" width="10.6" height="10.6"/>
	</g>
	<g>
		<rect x="106.3" y="190.4" class="st0" width="10.6" height="10.6"/>
	</g>
	<g>
		<rect x="106.3" y="200.9" class="st0" width="10.6" height="10.6"/>
	</g>
	<g>
		<rect x="106.3" y="243" class="st0" width="10.6" height="10.6"/>
	</g>
	<g>
		<rect x="116.8" y="1" class="st0" width="10.6" height="10.6"/>
	</g>
	<g>
		<rect x="116.8" y="22.1" class="st0" width="10.6" height="10.6"/>
	</g>
	<g>
		<rect x="116.8" y="43.1" class="st0" width="10.6" height="10.6"/>
	</g>
	<g>
		<rect x="116.8" y="74.6" class="st0" width="10.6" height="10.6"/>
	</g>
	<g>
		<rect x="116.8" y="85.2" class="st0" width="10.6" height="10.6"/>
	</g>
	<g>
		<rect x="116.8" y="95.7" class="st0" width="10.6" height="10.6"/>
	</g>
	<g>
		<rect x="116.8" y="137.8" class="st0" width="10.6" height="10.6"/>
	</g>
	<g>
		<rect x="116.8" y="179.8" class="st0" width="10.6" height="10.6"/>
	</g>
	<g>
		<rect x="116.8" y="221.9" class="st0" width="10.6" height="10.6"/>
	</g>
	<g>
		<rect x="116.8" y="243" class="st0" width="10.6" height="10.6"/>
	</g>
	<g>
		<rect x="127.3" y="22.1" class="st0" width="10.6" height="10.6"/>
	</g>
	<g>
		<rect x="127.3" y="32.7" class="st0" width="10.6" height="10.6"/>
	</g>
	<g>
		<rect x="127.3" y="53.6" class="st0" width="10.6" height="10.6"/>
	</g>
	<g>
		<rect x="127.3" y="64.2" class="st0" width="10.6" height="10.6"/>
	</g>
	<g>
		<rect x="127.3" y="85.2" class="st0" width="10.6" height="10.6"/>
	</g>
	<g>
		<rect x="127.3" y="95.7" class="st0" width="10.6" height="10.6"/>
	</g>
	<g>
		<rect x="127.3" y="106.3" class="st0" width="10.6" height="10.6"/>
	</g>
	<g>
		<rect x="127.3" y="169.4" class="st0" width="10.6" height="10.6"/>
	</g>
	<g>
		<rect x="127.3" y="211.5" class="st0" width="10.6" height="10.6"/>
	</g>
	<g>
		<rect x="127.3" y="232.4" class="st0" width="10.6" height="10.6"/>
	</g>
	<g>
		<rect x="127.3" y="243" class="st0" width="10.6" height="10.6"/>
	</g>
	<g>
		<rect x="137.8" y="32.7" class="st0" width="10.6" height="10.6"/>
	</g>
	<g>
		<rect x="137.8" y="43.1" class="st0" width="10.6" height="10.6"/>
	</g>
	<g>
		<rect x="137.8" y="85.2" class="st0" width="10.6" height="10.6"/>
	</g>
	<g>
		<rect x="137.8" y="106.3" class="st0" width="10.6" height="10.6"/>
	</g>
	<g>
		<rect x="137.8" y="127.3" class="st0" width="10.6" height="10.6"/>
	</g>
	<g>
		<rect x="137.8" y="169.4" class="st0" width="10.6" height="10.6"/>
	</g>
	<g>
		<rect x="137.8" y="190.4" class="st0" width="10.6" height="10.6"/>
	</g>
	<g>
		<rect x="137.8" y="211.5" class="st0" width="10.6" height="10.6"/>
	</g>
	<g>
		<rect x="137.8" y="253.4" class="st0" width="10.6" height="10.6"/>
	</g>
	<g>
		<rect x="148.2" y="1" class="st0" width="10.6" height="10.6"/>
	</g>
	<g>
		<rect x="148.2" y="11.6" class="st0" width="10.6" height="10.6"/>
	</g>
	<g>
		<rect x="148.2" y="32.7" class="st0" width="10.6" height="10.6"/>
	</g>
	<g>
		<rect x="148.2" y="64.2" class="st0" width="10.6" height="10.6"/>
	</g>
	<g>
		<rect x="148.2" y="74.6" class="st0" width="10.6" height="10.6"/>
	</g>
	<g>
		<rect x="148.2" y="85.2" class="st0" width="10.6" height="10.6"/>
	</g>
	<g>
		<rect x="148.2" y="95.7" class="st0" width="10.6" height="10.6"/>
	</g>
	<g>
		<rect x="148.2" y="106.3" class="st0" width="10.6" height="10.6"/>
	</g>
	<g>
		<rect x="148.2" y="127.3" class="st0" width="10.6" height="10.6"/>
	</g>
	<g>
		<rect x="148.2" y="148.2" class="st0" width="10.6" height="10.6"/>
	</g>
	<g>
		<rect x="148.2" y="158.8" class="st0" width="10.6" height="10.6"/>
	</g>
	<g>
		<rect x="148.2" y="169.4" class="st0" width="10.6" height="10.6"/>
	</g>
	<g>
		<rect x="148.2" y="179.8" class="st0" width="10.6" height="10.6"/>
	</g>
	<g>
		<rect x="148.2" y="200.9" class="st0" width="10.6" height="10.6"/>
	</g>
	<g>
		<rect x="148.2" y="211.5" class="st0" width="10.6" height="10.6"/>
	</g>
	<g>
		<rect x="148.2" y="221.9" class="st0" width="10.6" height="10.6"/>
	</g>
	<g>
		<rect x="148.2" y="232.4" class="st0" width="10.6" height="10.6"/>
	</g>
	<g>
		<rect x="148.2" y="253.4" class="st0" width="10.6" height="10.6"/>
	</g>
	<g>
		<rect x="158.8" y="11.6" class="st0" width="10.6" height="10.6"/>
	</g>
	<g>
		<rect x="158.8" y="32.7" class="st0" width="10.6" height="10.6"/>
	</g>
	<g>
		<rect x="158.8" y="53.6" class="st0" width="10.6" height="10.6"/>
	</g>
	<g>
		<rect x="158.8" y="74.6" class="st0" width="10.6" height="10.6"/>
	</g>
	<g>
		<rect x="158.8" y="85.2" class="st0" width="10.6" height="10.6"/>
	</g>
	<g>
		<rect x="158.8" y="106.3" class="st0" width="10.6" height="10.6"/>
	</g>
	<g>
		<rect x="158.8" y="116.8" class="st0" width="10.6" height="10.6"/>
	</g>
	<g>
		<rect x="158.8" y="127.3" class="st0" width="10.6" height="10.6"/>
	</g>
	<g>
		<rect x="158.8" y="148.2" class="st0" width="10.6" height="10.6"/>
	</g>
	<g>
		<rect x="158.8" y="158.8" class="st0" width="10.6" height="10.6"/>
	</g>
	<g>
		<rect x="158.8" y="169.4" class="st0" width="10.6" height="10.6"/>
	</g>
	<g>
		<rect x="158.8" y="211.5" class="st0" width="10.6" height="10.6"/>
	</g>
	<g>
		<rect x="158.8" y="232.4" class="st0" width="10.6" height="10.6"/>
	</g>
	<g>
		<rect x="158.8" y="243" class="st0" width="10.6" height="10.6"/>
	</g>
	<g>
		<rect x="169.4" y="1" class="st0" width="10.6" height="10.6"/>
	</g>
	<g>
		<rect x="169.4" y="11.6" class="st0" width="10.6" height="10.6"/>
	</g>
	<g>
		<rect x="169.4" y="43.1" class="st0" width="10.6" height="10.6"/>
	</g>
	<g>
		<rect x="169.4" y="53.6" class="st0" width="10.6" height="10.6"/>
	</g>
	<g>
		<rect x="169.4" y="64.2" class="st0" width="10.6" height="10.6"/>
	</g>
	<g>
		<rect x="169.4" y="95.7" class="st0" width="10.6" height="10.6"/>
	</g>
	<g>
		<rect x="169.4" y="106.3" class="st0" width="10.6" height="10.6"/>
	</g>
	<g>
		<rect x="169.4" y="137.8" class="st0" width="10.6" height="10.6"/>
	</g>
	<g>
		<rect x="169.4" y="158.8" class="st0" width="10.6" height="10.6"/>
	</g>
	<g>
		<rect x="169.4" y="169.4" class="st0" width="10.6" height="10.6"/>
	</g>
	<g>
		<rect x="169.4" y="179.8" class="st0" width="10.6" height="10.6"/>
	</g>
	<g>
		<rect x="169.4" y="190.4" class="st0" width="10.6" height="10.6"/>
	</g>
	<g>
		<rect x="169.4" y="200.9" class="st0" width="10.6" height="10.6"/>
	</g>
	<g>
		<rect x="169.4" y="211.5" class="st0" width="10.6" height="10.6"/>
	</g>
	<g>
		<rect x="169.4" y="243" class="st0" width="10.6" height="10.6"/>
	</g>
	<g>
		<rect x="179.8" y="85.2" class="st0" width="10.6" height="10.6"/>
	</g>
	<g>
		<rect x="179.8" y="127.3" class="st0" width="10.6" height="10.6"/>
	</g>
	<g>
		<rect x="179.8" y="158.8" class="st0" width="10.6" height="10.6"/>
	</g>
	<g>
		<rect x="179.8" y="169.4" class="st0" width="10.6" height="10.6"/>
	</g>
	<g>
		<rect x="179.8" y="211.5" class="st0" width="10.6" height="10.6"/>
	</g>
	<g>
		<rect x="179.8" y="221.9" class="st0" width="10.6" height="10.6"/>
	</g>
	<g>
		<rect x="190.4" y="1" class="st0" width="10.6" height="10.6"/>
	</g>
	<g>
		<rect x="190.4" y="11.6" class="st0" width="10.6" height="10.6"/>
	</g>
	<g>
		<rect x="190.4" y="22.1" class="st0" width="10.6" height="10.6"/>
	</g>
	<g>
		<rect x="190.4" y="32.7" class="st0" width="10.6" height="10.6"/>
	</g>
	<g>
		<rect x="190.4" y="43.1" class="st0" width="10.6" height="10.6"/>
	</g>
	<g>
		<rect x="190.4" y="53.6" class="st0" width="10.6" height="10.6"/>
	</g>
	<g>
		<rect x="190.4" y="64.2" class="st0" width="10.6" height="10.6"/>
	</g>
	<g>
		<rect x="190.4" y="116.8" class="st0" width="10.6" height="10.6"/>
	</g>
	<g>
		<rect x="190.4" y="127.3" class="st0" width="10.6" height="10.6"/>
	</g>
	<g>
		<rect x="190.4" y="158.8" class="st0" width="10.6" height="10.6"/>
	</g>
	<g>
		<rect x="190.4" y="169.4" class="st0" width="10.6" height="10.6"/>
	</g>
	<g>
		<rect x="190.4" y="190.4" class="st0" width="10.6" height="10.6"/>
	</g>
	<g>
		<rect x="190.4" y="211.5" class="st0" width="10.6" height="10.6"/>
	</g>
	<g>
		<rect x="190.4" y="221.9" class="st0" width="10.6" height="10.6"/>
	</g>
	<g>
		<rect x="190.4" y="243" class="st0" width="10.6" height="10.6"/>
	</g>
	<g>
		<rect x="200.9" y="1" class="st0" width="10.6" height="10.6"/>
	</g>
	<g>
		<rect x="200.9" y="64.2" class="st0" width="10.6" height="10.6"/>
	</g>
	<g>
		<rect x="200.9" y="85.2" class="st0" width="10.6" height="10.6"/>
	</g>
	<g>
		<rect x="200.9" y="95.7" class="st0" width="10.6" height="10.6"/>
	</g>
	<g>
		<rect x="200.9" y="106.3" class="st0" width="10.6" height="10.6"/>
	</g>
	<g>
		<rect x="200.9" y="127.3" class="st0" width="10.6" height="10.6"/>
	</g>
	<g>
		<rect x="200.9" y="137.8" class="st0" width="10.6" height="10.6"/>
	</g>
	<g>
		<rect x="200.9" y="148.2" class="st0" width="10.6" height="10.6"/>
	</g>
	<g>
		<rect x="200.9" y="158.8" class="st0" width="10.6" height="10.6"/>
	</g>
	<g>
		<rect x="200.9" y="169.4" class="st0" width="10.6" height="10.6"/>
	</g>
	<g>
		<rect x="200.9" y="211.5" class="st0" width="10.6" height="10.6"/>
	</g>
	<g>
		<rect x="200.9" y="243" class="st0" width="10.6" height="10.6"/>
	</g>
	<g>
		<rect x="200.9" y="253.4" class="st0" width="10.6" height="10.6"/>
	</g>
	<g>
		<rect x="211.5" y="1" class="st0" width="10.6" height="10.6"/>
	</g>
	<g>
		<rect x="211.5" y="22.1" class="st0" width="10.6" height="10.6"/>
	</g>
	<g>
		<rect x="211.5" y="32.7" class="st0" width="10.6" height="10.6"/>
	</g>
	<g>
		<rect x="211.5" y="43.1" class="st0" width="10.6" height="10.6"/>
	</g>
	<g>
		<rect x="211.5" y="64.2" class="st0" width="10.6" height="10.6"/>
	</g>
	<g>
		<rect x="211.5" y="106.3" class="st0" width="10.6" height="10.6"/>
	</g>
	<g>
		<rect x="211.5" y="127.3" class="st0" width="10.6" height="10.6"/>
	</g>
	<g>
		<rect x="211.5" y="148.2" class="st0" width="10.6" height="10.6"/>
	</g>
	<g>
		<rect x="211.5" y="158.8" class="st0" width="10.6" height="10.6"/>
	</g>
	<g>
		<rect x="211.5" y="169.4" class="st0" width="10.6" height="10.6"/>
	</g>
	<g>
		<rect x="211.5" y="179.8" class="st0" width="10.6" height="10.6"/>
	</g>
	<g>
		<rect x="211.5" y="190.4" class="st0" width="10.6" height="10.6"/>
	</g>
	<g>
		<rect x="211.5" y="200.9" class="st0" width="10.6" height="10.6"/>
	</g>
	<g>
		<rect x="211.5" y="211.5" class="st0" width="10.6" height="10.6"/>
	</g>
	<g>
		<rect x="211.5" y="221.9" class="st0" width="10.6" height="10.6"/>
	</g>
	<g>
		<rect x="211.5" y="243" class="st0" width="10.6" height="10.6"/>
	</g>
	<g>
		<rect x="211.5" y="253.4" class="st0" width="10.6" height="10.6"/>
	</g>
	<g>
		<rect x="221.9" y="1" class="st0" width="10.6" height="10.6"/>
	</g>
	<g>
		<rect x="221.9" y="22.1" class="st0" width="10.6" height="10.6"/>
	</g>
	<g>
		<rect x="221.9" y="32.7" class="st0" width="10.6" height="10.6"/>
	</g>
	<g>
		<rect x="221.9" y="43.1" class="st0" width="10.6" height="10.6"/>
	</g>
	<g>
		<rect x="221.9" y="64.2" class="st0" width="10.6" height="10.6"/>
	</g>
	<g>
		<rect x="221.9" y="85.2" class="st0" width="10.6" height="10.6"/>
	</g>
	<g>
		<rect x="221.9" y="106.3" class="st0" width="10.6" height="10.6"/>
	</g>
	<g>
		<rect x="221.9" y="137.8" class="st0" width="10.6" height="10.6"/>
	</g>
	<g>
		<rect x="221.9" y="148.2" class="st0" width="10.6" height="10.6"/>
	</g>
	<g>
		<rect x="221.9" y="179.8" class="st0" width="10.6" height="10.6"/>
	</g>
	<g>
		<rect x="221.9" y="200.9" class="st0" width="10.6" height="10.6"/>
	</g>
	<g>
		<rect x="221.9" y="221.9" class="st0" width="10.6" height="10.6"/>
	</g>
	<g>
		<rect x="221.9" y="232.4" class="st0" width="10.6" height="10.6"/>
	</g>
	<g>
		<rect x="221.9" y="243" class="st0" width="10.6" height="10.6"/>
	</g>
	<g>
		<rect x="221.9" y="253.4" class="st0" width="10.6" height="10.6"/>
	</g>
	<g>
		<rect x="232.4" y="1" class="st0" width="10.6" height="10.6"/>
	</g>
	<g>
		<rect x="232.4" y="22.1" class="st0" width="10.6" height="10.6"/>
	</g>
	<g>
		<rect x="232.4" y="32.7" class="st0" width="10.6" height="10.6"/>
	</g>
	<g>
		<rect x="232.4" y="43.1" class="st0" width="10.6" height="10.6"/>
	</g>
	<g>
		<rect x="232.4" y="64.2" class="st0" width="10.6" height="10.6"/>
	</g>
	<g>
		<rect x="232.4" y="127.3" class="st0" width="10.6" height="10.6"/>
	</g>
	<g>
		<rect x="232.4" y="169.4" class="st0" width="10.6" height="10.6"/>
	</g>
	<g>
		<rect x="232.4" y="190.4" class="st0" width="10.6" height="10.6"/>
	</g>
	<g>
		<rect x="232.4" y="211.5" class="st0" width="10.6" height="10.6"/>
	</g>
	<g>
		<rect x="232.4" y="221.9" class="st0" width="10.6" height="10.6"/>
	</g>
	<g>
		<rect x="232.4" y="232.4" class="st0" width="10.6" height="10.6"/>
	</g>
	<g>
		<rect x="232.4" y="253.4" class="st0" width="10.6" height="10.6"/>
	</g>
	<g>
		<rect x="243" y="1" class="st0" width="10.6" height="10.6"/>
	</g>
	<g>
		<rect x="243" y="64.2" class="st0" width="10.6" height="10.6"/>
	</g>
	<g>
		<rect x="243" y="85.2" class="st0" width="10.6" height="10.6"/>
	</g>
	<g>
		<rect x="243" y="95.7" class="st0" width="10.6" height="10.6"/>
	</g>
	<g>
		<rect x="243" y="106.3" class="st0" width="10.6" height="10.6"/>
	</g>
	<g>
		<rect x="243" y="127.3" class="st0" width="10.6" height="10.6"/>
	</g>
	<g>
		<rect x="243" y="137.8" class="st0" width="10.6" height="10.6"/>
	</g>
	<g>
		<rect x="243" y="148.2" class="st0" width="10.6" height="10.6"/>
	</g>
	<g>
		<rect x="243" y="190.4" class="st0" width="10.6" height="10.6"/>
	</g>
	<g>
		<rect x="243" y="253.4" class="st0" width="10.6" height="10.6"/>
	</g>
	<g>
		<rect x="253.4" y="1" class="st0" width="10.6" height="10.6"/>
	</g>
	<g>
		<rect x="253.4" y="11.6" class="st0" width="10.6" height="10.6"/>
	</g>
	<g>
		<rect x="253.4" y="22.1" class="st0" width="10.6" height="10.6"/>
	</g>
	<g>
		<rect x="253.4" y="32.7" class="st0" width="10.6" height="10.6"/>
	</g>
	<g>
		<rect x="253.4" y="43.1" class="st0" width="10.6" height="10.6"/>
	</g>
	<g>
		<rect x="253.4" y="53.6" class="st0" width="10.6" height="10.6"/>
	</g>
	<g>
		<rect x="253.4" y="64.2" class="st0" width="10.6" height="10.6"/>
	</g>
	<g>
		<rect x="253.4" y="106.3" class="st0" width="10.6" height="10.6"/>
	</g>
	<g>
		<rect x="253.4" y="116.8" class="st0" width="10.6" height="10.6"/>
	</g>
	<g>
		<rect x="253.4" y="127.3" class="st0" width="10.6" height="10.6"/>
	</g>
	<g>
		<rect x="253.4" y="148.2" class="st0" width="10.6" height="10.6"/>
	</g>
	<g>
		<rect x="253.4" y="158.8" class="st0" width="10.6" height="10.6"/>
	</g>
	<g>
		<rect x="253.4" y="190.4" class="st0" width="10.6" height="10.6"/>
	</g>
	<g>
		<rect x="253.4" y="200.9" class="st0" width="10.6" height="10.6"/>
	</g>
	<g>
		<rect x="253.4" y="211.5" class="st0" width="10.6" height="10.6"/>
	</g>
	<g>
		<rect x="253.4" y="232.4" class="st0" width="10.6" height="10.6"/>
	</g>
	<g>
		<rect x="253.4" y="243" class="st0" width="10.6" height="10.6"/>
	</g>
	<g>
		<rect x="253.4" y="253.4" class="st0" width="10.6" height="10.6"/>
	</g>
</g>
</svg>
