<?xml version="1.0" encoding="utf-8"?>
<!-- Generator: Adobe Illustrator 23.0.3, SVG Export Plug-In . SVG Version: 6.00 Build 0)  -->
<svg version="1.1" id="_x32_" xmlns="http://www.w3.org/2000/svg" xmlns:xlink="http://www.w3.org/1999/xlink" x="0px" y="0px"
	 viewBox="0 0 512 512" style="enable-background:new 0 0 512 512;" xml:space="preserve">
<style type="text/css">
	.st0{fill:#339933;}
</style>
<g>
	<path class="st0" d="M479.6,317c-4-9.4-10.6-17.4-19-23.1s-18.5-9-29.2-9c0,0-17.2,0-32,0c-14,0-31.1,0-44.7,0c-6.7,0-12.7,0-17,0
		c-2.6,0-4.6,0-5.7,0c-0.7-0.1-1.4-0.2-2.1-0.6c-1.2-0.6-2.6-1.4-4-3.2c-1.1-1.2-2.2-3.1-3.2-5.5c-1.6-3.5-3.1-8.2-4-14.1
		c-1-5.7-1.5-12.6-1.5-20.2c0-14.2,1.9-31.2,5.7-50.1c3.6-17.6,9.2-34,14.2-50.4c2.5-8.2,4.7-16.4,6.5-24.7c1.7-8.4,2.7-17,2.7-25.9
		c0-12.4-2.5-24.2-7.1-35.1c-6.7-16.2-18.2-29.9-32.6-39.6C292.1,5.6,274.7,0,256.1,0c-12.4,0-24.2,2.5-35.1,7.1
		c-16.2,6.9-29.9,18.2-39.6,32.6C171.6,54.1,166,71.5,166,90.1c0,8.9,1.1,17.5,2.7,25.9c2.6,12.6,6.4,24.7,10.2,37.2
		c3.7,12.4,7.7,24.9,10.4,38.1c3.9,18.7,5.7,35.7,5.7,50.1c0,7.7-0.5,14.6-1.6,20.5c-0.7,4.4-1.7,8.2-2.9,11.2
		c-0.9,2.2-1.7,4.2-2.7,5.7c-1.4,2.2-2.9,3.7-4.1,4.6c-1.1,0.7-2.2,1.2-3.5,1.4c-6.5,0-42.1,0-67.5,0c-7.2,0-15.2,0-21.5,0
		c-6.2,0-10.5,0-10.5,0c-7.2,0-14.1,1.5-20.4,4.1c-9.2,4.1-17.2,10.7-23,19.1c-5.7,8.4-9,18.5-9,29.2V443H42h441.4V337.4
		C483.7,330.3,482.2,323.3,479.6,317z M193.8,90.2c0-8.7,1.7-16.7,4.9-24.2c4.7-11.2,12.7-20.7,22.6-27.5
		c10-6.7,21.9-10.6,34.9-10.6c8.7,0,16.7,1.7,24.2,4.9c11.2,4.7,20.7,12.7,27.5,22.6c6.7,10,10.6,21.9,10.7,34.9
		c0,6.6-0.7,13.2-2.2,20.4c-2.1,10.6-5.7,22-9.6,34.4s-8,25.9-11.1,40.7c-4.2,20.2-6.2,39.1-6.2,55.7c0,9,0.6,17.4,2,25.2
		c1,5.7,2.4,11.2,4.2,16.2c1.2,3.2,2.7,6.4,4.4,9.2h-87.7c0.9-1.6,1.7-3.2,2.6-5c2.9-6.2,4.7-13.2,6.1-21c1.2-7.6,1.9-15.9,1.9-24.7
		c0-16.6-2.1-35.4-6.2-55.7c-4.1-19.7-10.1-37.1-14.7-52.7c-2.4-7.7-4.4-15.2-5.9-22.4C194.5,103.5,193.8,96.7,193.8,90.2z
		 M456.1,415.4H56.2v-78c0-3.5,0.7-6.7,2-9.7c1.9-4.5,5-8.2,9-10.9c4-2.7,8.7-4.2,13.9-4.2c0,0,4.2,0,10.5,0c6.2,0,14.2,0,21.5,0
		c21.6,0,50.4,0,62.6,0c3.7,0,5.9,0,5.9,0h0.7H330h0.7c0,0,2.5,0,6.7,0c1.9,0,4.2,0,6.7,0c14.2,0,37.2,0,55.1,0c14.6,0,32,0,32,0
		c3.5,0,6.7,0.7,9.7,2c4.4,1.9,8.2,5,10.9,9c2.7,4,4.2,8.7,4.2,13.9L456.1,415.4L456.1,415.4z"/>
	<rect x="64.3" y="474" class="st0" width="383.5" height="38"/>
</g>
</svg>
