<?xml version="1.0" encoding="utf-8"?>
<!-- Generator: Adobe Illustrator 23.0.3, SVG Export Plug-In . SVG Version: 6.00 Build 0)  -->
<svg version="1.1" id="_x32_" xmlns="http://www.w3.org/2000/svg" xmlns:xlink="http://www.w3.org/1999/xlink" x="0px" y="0px"
	 viewBox="0 0 512 512" style="enable-background:new 0 0 512 512;" xml:space="preserve">
<style type="text/css">
	.st0{fill:#993399;}
</style>
<g>
	<path class="st0" d="M256,0c-97.2,0-175.9,78.8-176,176c0.1,14.3,3,28.6,7.6,43.8c8,26.4,21.1,55.3,36.3,84.5
		c45.6,87.4,110.3,177.4,110.7,177.9L256,512l21.4-29.8c0.2-0.3,38-52.8,76-116.3c19-31.8,38.1-66.2,52.8-98.9
		c7.3-16.3,13.6-32.2,18.2-47.3c4.5-15.2,7.5-29.5,7.5-43.8C431.9,78.8,353.2,0,256,0z M373.9,204.6c-6.3,21.2-18.2,47.9-32.6,75.4
		c-21.5,41.3-48.3,84.4-69.6,117c-5.7,8.7-11,16.6-15.7,23.6c-14.9-22-35.6-53.6-55.8-87.8c-17.7-29.9-35.1-61.8-47.7-90.2
		c-6.3-14.2-11.4-27.5-14.8-39.1c-3.4-11.5-5-21.3-5-27.5c0-34.1,13.8-64.7,36.1-87.2c22.4-22.3,53-36.1,87.2-36.1
		c34.1,0,64.8,13.8,87.1,36.1c22.4,22.4,36.1,53,36.1,87.2C379.3,182.3,377.6,192.6,373.9,204.6z"/>
	<path class="st0" d="M256,118.7c-31.6,0-57.2,25.6-57.2,57.2c0,31.6,25.6,57.2,57.2,57.2c31.6,0,57.2-25.6,57.2-57.2
		C313.2,144.4,287.6,118.7,256,118.7z"/>
</g>
</svg>
