<?xml version="1.0" encoding="utf-8"?>
<!-- Generator: Adobe Illustrator 23.0.3, SVG Export Plug-In . SVG Version: 6.00 Build 0)  -->
<svg version="1.1" id="_x32_" xmlns="http://www.w3.org/2000/svg" xmlns:xlink="http://www.w3.org/1999/xlink" x="0px" y="0px"
	 viewBox="0 0 512 512" style="enable-background:new 0 0 512 512;" xml:space="preserve">
<style type="text/css">
	.st0{fill:#009999;}
</style>
<g>
	<path class="st0" d="M434.8,304.8c-3.2-7.5-8.5-13.9-15.2-18.5c-6.7-4.6-14.8-7.2-23.4-7.2c0,0-13.8,0-25.6,0
		c-11.2,0-24.9,0-35.8,0c-5.4,0-10.2,0-13.6,0c-2.1,0-3.7,0-4.6,0c-0.6-0.1-1.1-0.2-1.7-0.5c-1-0.5-2.1-1.1-3.2-2.6
		c-0.9-1-1.8-2.5-2.6-4.4c-1.3-2.8-2.5-6.6-3.2-11.3c-0.8-4.6-1.2-10.1-1.2-16.2c0-11.4,1.5-25,4.6-40.1
		c2.9-14.1,7.4-27.2,11.4-40.3c2-6.6,3.8-13.1,5.2-19.8c1.4-6.7,2.2-13.6,2.2-20.7c0-9.9-2-19.4-5.7-28.1
		c-5.4-13-14.6-23.9-26.1-31.7c-11.5-7.8-25.4-12.3-40.3-12.3c-9.9,0-19.4,2-28.1,5.7c-13,5.5-23.9,14.6-31.7,26.1
		c-7.8,11.5-12.3,25.4-12.3,40.3c0,7.1,0.9,14,2.2,20.7c2.1,10.1,5.1,19.8,8.2,29.8c3,9.9,6.2,19.9,8.3,30.5
		c3.1,15,4.6,28.6,4.6,40.1c0,6.2-0.4,11.7-1.3,16.4c-0.6,3.5-1.4,6.6-2.3,9c-0.7,1.8-1.4,3.4-2.2,4.6c-1.1,1.8-2.3,3-3.3,3.7
		c-0.9,0.6-1.8,1-2.8,1.1c-5.2,0-33.7,0-54,0c-5.8,0-12.2,0-17.2,0c-5,0-8.4,0-8.4,0c-5.8,0-11.3,1.2-16.3,3.3
		C92,285.7,85.6,291,81,297.7c-4.6,6.7-7.2,14.8-7.2,23.4v84.5h11H438v-84.5C438.1,315.4,436.9,309.8,434.8,304.8z M206.1,123.3
		c0-7,1.4-13.4,3.9-19.4c3.8-9,10.2-16.6,18.1-22c8-5.4,17.5-8.5,27.9-8.5c7,0,13.4,1.4,19.4,3.9c9,3.8,16.6,10.2,22,18.1
		c5.4,8,8.5,17.5,8.6,27.9c0,5.3-0.6,10.6-1.8,16.3c-1.7,8.5-4.6,17.6-7.7,27.5c-3.1,9.9-6.4,20.7-8.9,32.6c-3.4,16.2-5,31.3-5,44.6
		c0,7.2,0.5,13.9,1.6,20.2c0.8,4.6,1.9,9,3.4,13c1,2.6,2.2,5.1,3.5,7.4h-70.2c0.7-1.3,1.4-2.6,2.1-4c2.3-5,3.8-10.6,4.9-16.8
		c1-6.1,1.5-12.7,1.5-19.8c0-13.3-1.7-28.3-5-44.6c-3.3-15.8-8.1-29.7-11.8-42.2c-1.9-6.2-3.5-12.2-4.7-17.9
		C206.7,133.9,206.1,128.5,206.1,123.3z M416,383.5H96v-62.4c0-2.8,0.6-5.4,1.6-7.8c1.5-3.6,4-6.6,7.2-8.7c3.2-2.2,7-3.4,11.1-3.4
		c0,0,3.4,0,8.4,0s11.4,0,17.2,0c17.3,0,40.3,0,50.1,0c3,0,4.7,0,4.7,0h0.6h118.2h0.6c0,0,2,0,5.4,0c1.5,0,3.4,0,5.4,0
		c11.4,0,29.8,0,44.1,0c11.7,0,25.6,0,25.6,0c2.8,0,5.4,0.6,7.8,1.6c3.5,1.5,6.6,4,8.7,7.2c2.2,3.2,3.4,7,3.4,11.1L416,383.5
		L416,383.5z"/>
	<rect x="102.5" y="430.4" class="st0" width="306.9" height="30.4"/>
</g>
</svg>
