<?xml version="1.0" encoding="utf-8"?>
<!-- Generator: Adobe Illustrator 22.1.0, SVG Export Plug-In . SVG Version: 6.00 Build 0)  -->
<svg version="1.1" id="レイヤー_1" xmlns="http://www.w3.org/2000/svg" xmlns:xlink="http://www.w3.org/1999/xlink" x="0px"
	 y="0px" viewBox="0 0 199 94" style="enable-background:new 0 0 199 94;" xml:space="preserve">
<style type="text/css">
	.st0{fill:#E05A00;}
	.st1{fill:none;stroke:#E05A00;stroke-width:4;stroke-miterlimit:10;}
	.st2{fill:none;stroke:#E05A00;stroke-width:4;stroke-miterlimit:10;stroke-dasharray:6.2464,6.2464;}
</style>
<g>
	<path class="st0" d="M9.2,53c4.2-0.9,9.6-3,9.6-6.5c0-2.1-1.4-3.3-4.5-4.9c-3.6-2-6.2-3.8-6.2-6.8c0-4.5,6.3-8.7,12.2-10l0.9,3.3
		c-2.6,0.4-9,2.4-9,6c0,2.2,3,3.6,4.8,4.7c3.3,1.9,5.9,3.3,5.9,6.8c0,4.2-4.5,8.8-12.7,10.7L9.2,53z"/>
	<path class="st0" d="M32.2,55.5c0.1-1.6,0.1-10.1,0.1-11.1v-3.9c0-0.6-0.1-9.6-0.2-10.5h4.2c-0.1,0.6-0.2,8.1-0.2,8.7v2.7l16.5-0.7
		V38c0-0.6-0.1-7.2-0.1-8h4.2c-0.1,0.9-0.3,10.7-0.3,11.6v3.6c0,0.5,0.1,9.6,0.2,10.3h-4.1c0.1-1.2,0.2-7.7,0.2-8.4v-3.7L36,44.1
		v2.2c0,1.6,0.1,8.3,0.2,9.2H32.2z"/>
	<path class="st0" d="M71.3,44.5c0,3.6,0.1,10.2,0.2,11h-4c0.1-1.6,0.1-10.1,0.1-11.1v-3.9c0-0.6-0.1-9.6-0.2-10.5h4.2
		c-0.1,0.6-0.2,6.2-0.2,10.5L71.3,44.5L71.3,44.5z"/>
	<path class="st0" d="M82.7,37.9c0-1.1-0.1-7.2-0.2-8c2.1,0,4.6,0,6.2,0.1c7.8,0.6,9.1,3.6,9.1,5.6c0,1.4-1,4.2-5.2,5.8v0.1
		c2.9,0.4,6.4,2.3,6.4,5.6c0,4.9-5.8,8.6-15.7,8.6h-0.8c0.2-2,0.2-13,0.2-13.7V37.9z M86.3,41c4.2,0,7.7-2.4,7.7-4.9
		c0-3.3-4.9-3.7-7.7-3.6V41z M86.3,52.9c4.3-0.3,8.7-1.9,8.7-5.6c0-2.8-3.8-4.2-8.7-4V52.9z"/>
	<path class="st0" d="M102.5,54.4c2.1-3.6,13.2-24.3,14.1-25.7h0.1c3.3,5.2,12.6,21.6,15.1,25.4l-3.5,2.1c-0.7-1.4-4.7-8.6-5.1-9.2
		L110,47.5c-0.5,1.2-3.5,7.5-4.1,8.7L102.5,54.4z M121.8,44.4c-0.4-0.8-4.9-9-5.3-9.6c-0.6,0.9-4.8,9.5-5.1,10.1L121.8,44.4z"/>
	<path class="st0" d="M142.4,55.5c0.2-0.9,0.3-11.6,0.3-17.4V33c-4.4,0-9.9,0.2-10.5,0.3v-3.5c1.1,0.3,10.3,0.4,10.8,0.4h3.4
		c0.7,0,9.2-0.1,10.5-0.4v3.5c-0.1-0.2-7.3-0.3-10.4-0.3v5.7c0,7.4,0.4,16.1,0.5,16.8H142.4z"/>
	<path class="st0" d="M157.2,54.4c2.1-3.6,13.2-24.3,14.1-25.7h0.1c3.3,5.2,12.6,21.6,15.1,25.4l-3.5,2.1c-0.7-1.4-4.7-8.6-5.1-9.2
		l-13.2,0.5c-0.5,1.2-3.5,7.5-4.1,8.7L157.2,54.4z M176.5,44.4c-0.4-0.8-4.9-9-5.3-9.6c-0.6,0.9-4.8,9.5-5.1,10.1L176.5,44.4z"/>
</g>
<path class="st0" d="M59.4,67h-4.2l-0.5,1.2c-0.3,0.8-0.5,1.2-0.5,1.4c0,0.1,0,0.2,0.1,0.2s0.2,0.1,0.5,0.1l0.7,0.1v0.5
	c-0.5,0-1-0.1-1.6-0.1c-0.7,0-1.3,0-1.8,0.1V70h0.2c0.3,0,0.6,0,0.7-0.1c0.1-0.1,0.2-0.2,0.3-0.4c0.3-0.7,0.7-1.4,1.1-2.3l2-4.5
	c0.5-1.2,0.9-2.1,1.1-2.6H58l3.7,8.5c0.2,0.6,0.4,0.9,0.5,1s0.2,0.2,0.3,0.3c0.1,0.1,0.3,0.1,0.7,0.1v0.5c-0.6,0-1.2-0.1-1.8-0.1
	c-0.5,0-1.2,0-2.1,0.1V70H60c0.3,0,0.4,0,0.5-0.1s0.1-0.1,0.1-0.2s-0.1-0.3-0.2-0.7L59.4,67z M55.5,66.4h3.7L57.3,62L55.5,66.4z"/>
<path class="st0" d="M69.9,69.4l0.2,0.2l-0.3,0.5c-0.3,0.2-0.7,0.3-1,0.4s-0.7,0.1-1.1,0.1c-0.7,0-1.3-0.1-1.8-0.4S65,69.5,64.8,69
	c-0.3-0.5-0.4-1.1-0.4-1.8c0-0.6,0.1-1.2,0.3-1.6s0.5-0.8,0.9-1.1c0.4-0.3,0.8-0.5,1.4-0.8c0.4-0.2,0.8-0.3,1.3-0.3
	c0.4,0,0.7,0,1,0.1s0.6,0.2,0.9,0.3c-0.1,0.6-0.2,1.3-0.2,1.9h-0.5v-0.4c0-0.3,0-0.5-0.1-0.7c-0.1-0.1-0.3-0.3-0.6-0.4
	c-0.3-0.1-0.7-0.2-1-0.2c-0.7,0-1.2,0.2-1.5,0.6c-0.4,0.4-0.5,1-0.5,1.8c0,1,0.3,1.8,0.8,2.4s1.1,0.8,1.8,0.8c0.3,0,0.6,0,0.9-0.1
	C69.4,69.7,69.6,69.6,69.9,69.4z"/>
<path class="st0" d="M74.1,64.8v2.8c0,0.7,0,1.2,0.1,1.4c0,0.2,0.1,0.4,0.3,0.5c0.1,0.1,0.3,0.2,0.6,0.2c0.1,0,0.3,0,0.4-0.1
	s0.3-0.1,0.4-0.3l0.2,0.3l-0.7,0.8c-0.2,0.1-0.3,0.1-0.5,0.1c-0.1,0-0.3,0-0.4,0c-0.4,0-0.7-0.1-0.9-0.2s-0.4-0.3-0.5-0.5
	s-0.2-0.5-0.2-0.9v-1.4v-2.8c-0.4,0-0.8,0-1.2,0.1v-0.3c0.4-0.2,0.8-0.3,1.2-0.5c0-0.7,0-1.4-0.1-2.2c0.6-0.2,1-0.4,1.2-0.6l0.2,0.1
	c0,0.4-0.1,1.3-0.1,2.7c0.6,0,1.1,0,1.4,0h0.6L76,64.8h-0.3h-1.4H74.1z"/>
<path class="st0" d="M80.7,63.4l0.2,0.1c0,0.4-0.1,0.8-0.1,1.2c0,1.4-0.1,2.5-0.1,3.1s0,1.2,0.1,1.6c0,0.2,0.1,0.3,0.1,0.4
	c0.1,0.1,0.2,0.1,0.5,0.2l0.6,0v0.4c-0.7,0-1.3-0.1-1.9-0.1s-1.1,0-1.7,0.1V70H79c0.2,0,0.4-0.1,0.4-0.1s0.1-0.3,0.1-0.7
	c0-0.6,0-1.5,0-2.5c0-0.8,0-1.3,0-1.7c0-0.1-0.1-0.3-0.1-0.3s-0.2-0.1-0.5-0.1h-0.5V64c0.6-0.1,1-0.2,1.3-0.2
	C79.9,63.7,80.3,63.6,80.7,63.4z M80.1,60.2c0.2,0,0.4,0.1,0.6,0.2c0.2,0.2,0.2,0.4,0.2,0.6s-0.1,0.4-0.2,0.6
	c-0.2,0.2-0.3,0.2-0.6,0.2c-0.2,0-0.4-0.1-0.6-0.2c-0.2-0.2-0.2-0.4-0.2-0.6s0.1-0.4,0.2-0.6C79.7,60.3,79.9,60.2,80.1,60.2z"/>
<path class="st0" d="M88.3,64v-0.4c0.5,0,0.9,0.1,1.3,0.1c0.5,0,0.9,0,1.5-0.1V64h-0.2c-0.1,0-0.2,0-0.3,0.1c-0.1,0-0.1,0.1-0.2,0.1
	c0,0.1-0.2,0.4-0.5,1c-0.5,1.1-1,2-1.3,2.7s-0.7,1.5-1.1,2.6h-0.8c-0.6-1.6-1.3-3.1-2-4.6c-0.2-0.6-0.4-0.9-0.5-1.1
	c-0.1-0.3-0.2-0.5-0.4-0.6c-0.1-0.1-0.3-0.2-0.5-0.2h-0.2v-0.4c0.7,0,1.3,0.1,1.8,0.1s1.1,0,1.7-0.1V64h-0.3c-0.3,0-0.5,0-0.6,0.1
	c-0.1,0-0.1,0.1-0.1,0.2s0,0.2,0.1,0.5s0.7,1.7,1.8,4.4l1.3-3.1c0.3-0.7,0.5-1.2,0.5-1.5c0-0.1,0-0.1,0-0.2s0-0.2-0.1-0.2
	s-0.2-0.1-0.5-0.1L88.3,64z"/>
<path class="st0" d="M94,66.9c0,1,0.3,1.7,0.7,2.2s1.1,0.7,1.8,0.7c0.3,0,0.7-0.1,1-0.2s0.7-0.3,1-0.5l0.1,0.1l-0.2,0.6
	c-0.4,0.2-0.8,0.4-1.2,0.5c-0.4,0.1-0.9,0.2-1.3,0.2c-1,0-1.8-0.3-2.4-0.9s-0.9-1.5-0.9-2.5c0-0.8,0.2-1.5,0.5-2.1
	c0.2-0.4,0.6-0.8,1.2-1.1c0.6-0.3,1.2-0.5,1.7-0.5c0.9,0,1.5,0.3,2,0.8c0.5,0.5,0.8,1.2,0.8,2.1v0.4c-0.3,0.1-0.6,0.1-0.9,0.2
	c-0.5,0-1.2,0.1-2.1,0.1L94,66.9L94,66.9z M94,66.4c0.7,0,1.6,0.1,2.5,0.1c0.4,0,0.7,0,1.1-0.1V66c0-0.4-0.1-0.8-0.3-1.2
	c-0.1-0.2-0.3-0.4-0.6-0.6C96.4,64,96.1,64,95.8,64c-0.5,0-1,0.2-1.3,0.6C94.1,64.9,94,65.6,94,66.4z"/>
<path class="st0" d="M110.4,60.6c-0.1,0.5-0.2,1.2-0.2,2h-0.5V62c0-0.4-0.1-0.6-0.2-0.8s-0.4-0.3-0.8-0.4c-0.4-0.2-0.9-0.2-1.4-0.2
	c-0.8,0-1.4,0.2-1.8,0.6c-0.4,0.4-0.7,0.9-0.7,1.5c0,0.4,0.1,0.7,0.3,1c0.2,0.3,0.4,0.5,0.7,0.6c0.3,0.1,1,0.2,2,0.3
	c1,0.1,1.7,0.2,2,0.4c0.3,0.2,0.6,0.4,0.8,0.8c0.2,0.4,0.3,0.8,0.3,1.3c0,1-0.4,1.8-1.2,2.5c-0.8,0.7-1.9,1.1-3.2,1.1
	c-0.5,0-0.9,0-1.4-0.1s-0.9-0.2-1.4-0.4c0.1-0.6,0.1-1.3,0.1-2.2h0.5v0.4c0,0.5,0,0.8,0.1,0.9c0,0.1,0.2,0.2,0.3,0.4
	c0.3,0.2,0.6,0.3,0.9,0.4s0.8,0.1,1.2,0.1c0.9,0,1.6-0.2,2.1-0.6s0.7-1,0.7-1.6c0-0.4-0.1-0.7-0.3-1c-0.2-0.3-0.4-0.5-0.7-0.6
	s-0.9-0.2-1.7-0.3c-1.1-0.1-1.8-0.2-2.2-0.4c-0.4-0.2-0.7-0.4-0.9-0.8c-0.2-0.4-0.3-0.8-0.3-1.4c0-0.9,0.3-1.7,1-2.3
	s1.6-0.9,2.8-0.9c0.5,0,1,0.1,1.5,0.2S109.9,60.4,110.4,60.6z"/>
<path class="st0" d="M115.7,64.8v2.8c0,0.7,0,1.2,0.1,1.4c0,0.2,0.1,0.4,0.3,0.5c0.1,0.1,0.3,0.2,0.6,0.2c0.1,0,0.3,0,0.4-0.1
	s0.3-0.1,0.4-0.3l0.2,0.3l-0.7,0.8c-0.2,0.1-0.3,0.1-0.5,0.1c-0.1,0-0.3,0-0.4,0c-0.4,0-0.7-0.1-0.9-0.2s-0.4-0.3-0.5-0.5
	s-0.2-0.5-0.2-0.9v-1.4v-2.8c-0.4,0-0.8,0-1.2,0.1v-0.3c0.4-0.2,0.8-0.3,1.2-0.5c0-0.7,0-1.4-0.1-2.2c0.6-0.2,1-0.4,1.2-0.6l0.2,0.1
	c0,0.4-0.1,1.3-0.1,2.7c0.6,0,1.1,0,1.4,0h0.6l-0.1,0.7h-0.3h-1.4h-0.2V64.8z"/>
<path class="st0" d="M122.3,65.1c0.2-0.2,0.4-0.4,0.6-0.7c0.3-0.4,0.5-0.6,0.8-0.7c0.2-0.1,0.5-0.2,0.7-0.2c0.3,0,0.5,0,0.6,0.1
	c0.1,0,0.1,0.1,0.1,0.1v0.1c-0.1,0.4-0.1,0.9-0.1,1.6h-0.3c-0.1-0.2-0.2-0.4-0.4-0.5c-0.2-0.1-0.3-0.2-0.5-0.2
	c-0.3,0-0.5,0.1-0.8,0.3c-0.2,0.2-0.4,0.5-0.5,0.8s-0.1,1-0.1,2c0,0.7,0,1.2,0.1,1.7c0,0.2,0.1,0.3,0.1,0.3c0.2,0.1,0.5,0.2,0.8,0.2
	h0.4v0.4c-0.7,0-1.4-0.1-2.1-0.1c-0.6,0-1.3,0-1.9,0.1V70l0.7-0.1c0.2,0,0.4-0.1,0.5-0.1c0.1-0.1,0.1-0.3,0.1-0.7
	c0-0.7,0.1-1.5,0.1-2.5c0-1.2,0-1.8-0.1-2.1c-0.1-0.1-0.3-0.2-0.6-0.2h-0.6V64c0.5-0.1,0.9-0.1,1.3-0.2s0.7-0.2,1-0.3
	c0.1,0,0.1-0.1,0.2-0.1s0.1,0,0.1,0s0,0.1,0,0.2L122.3,65.1z"/>
<path class="st0" d="M128,66.9c0,1,0.3,1.7,0.7,2.2s1.1,0.7,1.8,0.7c0.3,0,0.7-0.1,1-0.2s0.7-0.3,1-0.5l0.1,0.1l-0.2,0.6
	c-0.4,0.2-0.8,0.4-1.2,0.5s-0.9,0.2-1.3,0.2c-1,0-1.8-0.3-2.4-0.9s-0.9-1.5-0.9-2.5c0-0.8,0.2-1.5,0.5-2.1c0.2-0.4,0.6-0.8,1.2-1.1
	c0.6-0.3,1.2-0.5,1.7-0.5c0.9,0,1.5,0.3,2,0.8c0.5,0.5,0.8,1.2,0.8,2.1v0.4c-0.3,0.1-0.6,0.1-0.9,0.2c-0.5,0-1.2,0.1-2.1,0.1
	L128,66.9L128,66.9z M128,66.4c0.7,0,1.6,0.1,2.5,0.1c0.4,0,0.7,0,1.1-0.1V66c0-0.4-0.1-0.8-0.3-1.2c-0.1-0.2-0.3-0.4-0.6-0.6
	s-0.6-0.2-0.9-0.2c-0.5,0-1,0.2-1.3,0.6C128.2,64.9,128,65.6,128,66.4z"/>
<path class="st0" d="M135.8,66.9c0,1,0.3,1.7,0.7,2.2s1.1,0.7,1.8,0.7c0.3,0,0.7-0.1,1-0.2s0.7-0.3,1-0.5l0.1,0.1l-0.2,0.6
	c-0.4,0.2-0.8,0.4-1.2,0.5s-0.9,0.2-1.3,0.2c-1,0-1.8-0.3-2.4-0.9c-0.6-0.6-0.9-1.5-0.9-2.5c0-0.8,0.2-1.5,0.5-2.1
	c0.2-0.4,0.6-0.8,1.2-1.1c0.6-0.3,1.2-0.5,1.7-0.5c0.9,0,1.5,0.3,2,0.8c0.5,0.5,0.8,1.2,0.8,2.1v0.4c-0.3,0.1-0.6,0.1-0.9,0.2
	c-0.5,0-1.2,0.1-2.1,0.1L135.8,66.9L135.8,66.9z M135.8,66.4c0.7,0,1.6,0.1,2.5,0.1c0.4,0,0.7,0,1.1-0.1V66c0-0.4-0.1-0.8-0.3-1.2
	c-0.1-0.2-0.3-0.4-0.6-0.6s-0.6-0.2-0.9-0.2c-0.5,0-1,0.2-1.3,0.6C136,64.9,135.9,65.6,135.8,66.4z"/>
<path class="st0" d="M144.6,64.8v2.8c0,0.7,0,1.2,0.1,1.4c0,0.2,0.1,0.4,0.3,0.5c0.1,0.1,0.3,0.2,0.6,0.2c0.1,0,0.3,0,0.4-0.1
	s0.3-0.1,0.4-0.3l0.2,0.3l-0.7,0.8c-0.2,0.1-0.3,0.1-0.5,0.1c-0.1,0-0.3,0-0.4,0c-0.4,0-0.7-0.1-0.9-0.2s-0.4-0.3-0.5-0.5
	s-0.2-0.5-0.2-0.9v-1.4v-2.8c-0.4,0-0.8,0-1.2,0.1v-0.3c0.4-0.2,0.8-0.3,1.2-0.5c0-0.7,0-1.4-0.1-2.2c0.6-0.2,1-0.4,1.2-0.6l0.2,0.1
	c0,0.4-0.1,1.3-0.1,2.7c0.6,0,1.1,0,1.4,0h0.6l-0.1,0.7h-0.3h-1.4h-0.2V64.8z"/>
<g>
	<g>
		<path class="st1" d="M1.6,2.1c1,0.3,1.9,0.6,2.9,0.9"/>
		<path class="st2" d="M10.5,4.8C69.8,22.2,133,21.9,192.2,4"/>
		<path class="st1" d="M195.2,3c1-0.3,1.9-0.6,2.9-0.9"/>
	</g>
</g>
<g>
	<g>
		<path class="st1" d="M0.7,91.3c1-0.3,1.9-0.6,2.9-0.9"/>
		<path class="st2" d="M9.6,88.5c59.3-17.4,122.5-17.1,181.7,0.9"/>
		<path class="st1" d="M194.3,90.3c1,0.3,1.9,0.6,2.9,0.9"/>
	</g>
</g>
</svg>
