<?xml version="1.0" encoding="utf-8"?>
<!-- Generator: Adobe Illustrator 22.0.1, SVG Export Plug-In . SVG Version: 6.00 Build 0)  -->
<svg version="1.1" id="_x32_" xmlns="http://www.w3.org/2000/svg" xmlns:xlink="http://www.w3.org/1999/xlink" x="0px" y="0px"
	 viewBox="0 0 512 512" style="enable-background:new 0 0 512 512;" xml:space="preserve">
<style type="text/css">
	.st0{fill:#00A9A5;}
</style>
<g>
	<path class="st0" d="M356.7,254c-31.2-32.5-67.8-55.2-55.6-82.4c8.2-18.6,39.2-41.2,22.1-85.7c-11.4-29.2-51-58.6-33.9-85.9
		c-31.6,10.8-42.9,45-33.7,64.4s16.2,52.7-14.4,70.1c-30.7,17.4-95.6,59.3-63.9,127.8c76.3-26.8,142.2,12.8,146.3,81.3
		c4.1,68.5-74.1,96-109.2,56.8c-14.2-15.9-6.9-30.2-1.8-35.4c5.2,22.3,39.9,33.7,62.4,12.3c22.5-21.5,21.9-86.1-46-94.1
		c-65.1-7.6-127.8,38.5-111.4,129.5s154.2,136.6,228.8,61.8C414.1,406.6,410.3,309.6,356.7,254z"/>
</g>
</svg>
