<?xml version="1.0" encoding="utf-8"?>
<!-- Generator: Adobe Illustrator 22.1.0, SVG Export Plug-In . SVG Version: 6.00 Build 0)  -->
<svg version="1.1" id="_x32_" xmlns="http://www.w3.org/2000/svg" xmlns:xlink="http://www.w3.org/1999/xlink" x="0px" y="0px"
	 viewBox="0 0 512 512" style="enable-background:new 0 0 512 512;" xml:space="preserve">
<style type="text/css">
	.st0{fill:#FFFFFF;}
</style>
<path class="st0" d="M239.4,512c68.4-26.9,200.4-78.7,200.4-78.7c1.1-0.4,2-1.4,2.2-2.6c0.3-1.2,0-2.4-0.8-3.3
	c0,0-10.2-9.9-15.6-17.3c-78.9-108.1,30-290-76.8-387.2c-68.5,26.9-200.4,78.7-200.4,78.7c-1.1,0.4-2,1.4-2.2,2.6
	c-0.3,1.2,0,2.4,0.9,3.3c0,0,9.8,9.5,15.1,16.8C241.9,232.2,132.5,414.6,239.4,512z M295.9,181.2c-33.8,13.3-61.8,42-78.1,74.5
	c1.2-39.1-0.6-77-14.2-110.2c16.9-8.7,26.1-27.9,17.6-44.6c29.1-11.4,58.2-22.9,87.3-34.3C322.8,81,342.1,89,360.6,83.8
	c13.6,33.3,15.5,71.1,14.2,110.2C360.3,173.5,329.6,167.9,295.9,181.2z M227.7,451.1c-13.6-33.3-15.5-71.2-14.2-110.3
	c14.4,20.5,45.1,26.1,78.9,12.8c33.8-13.3,61.8-42,78.1-74.5c-1.3,39.1,0.6,77,14.2,110.3c-16.9,8.7-26.1,27.9-17.6,44.5
	c-29.1,11.4-58.2,22.9-87.3,34.3C265.5,453.9,246.2,445.8,227.7,451.1z"/>
<path class="st0" d="M297.5,392.1c5.7-2.3,9.3-9,8.2-15.2c-1-6.2-6.3-9.5-12-7.3c-5.8,2.3-9.8,9.2-8.8,15.4
	C286,391.3,291.8,394.4,297.5,392.1z"/>
<path class="st0" d="M294.5,165.2c5.7-2.3,9.8-9.2,8.8-15.4s-6.8-9.3-12.5-7.1c-5.7,2.3-9.3,9-8.2,15.2
	C283.5,164.2,288.7,167.5,294.5,165.2z"/>
<path class="st0" d="M295.7,0L74.5,86.3c-2.6,1-4.4,3.4-4.7,6.2c-0.3,2.8,1.1,5.5,3.4,6.9l4,2.5l0.1,0.1l0.4,0.3
	c0.4,0.3,1,0.6,1.7,1.1c1.4,0.9,3.5,2.3,6,4.1c4.9,3.4,11.5,8.2,17.9,13.5c8.4,8,18.5,20.4,26.6,39.2c8.1,18.9,14.2,44.3,14.3,78.3
	c0,1.2,0,2.3,0,3.5v0.3V242c0,19.2-1.2,39.8-2.4,59.8c-1.2,20.6-2.5,42.1-2.5,63.3c0,25,1.6,53.7,9.9,82.5
	c5.3,18.2,13.3,36.5,25.2,53.6l18-8.4c-11.7-15.9-19.4-33-24.5-50.5c-7.5-26.1-9.2-53-9.1-77.1c0-20.4,1.2-41.5,2.5-62.1
	c1.2-20.1,2.5-41,2.5-61l0,0c0-1.3,0-2.5,0-3.6c0-36.3-6.6-64.5-15.8-85.9c-9.2-21.5-21.1-36.3-31.4-45.8l-0.2-0.2l-0.2-0.2
	c-4.5-3.8-9-7.2-13-10.2L318.7,12L295.7,0z"/>
</svg>
