<?xml version="1.0" encoding="utf-8"?>
<!-- Generator: Adobe Illustrator 21.1.0, SVG Export Plug-In . SVG Version: 6.00 Build 0)  -->
<svg version="1.1" id="_x32_" xmlns="http://www.w3.org/2000/svg" xmlns:xlink="http://www.w3.org/1999/xlink" x="0px" y="0px"
	 viewBox="0 0 512 512" style="enable-background:new 0 0 512 512;" xml:space="preserve">
<style type="text/css">
	.st0{fill:#FFFFFF;}
</style>
<g>
	<path class="st0" d="M402.2,488.5L402.2,488.5l0.1-0.1l0,0l0,0c-0.1-0.1-1-0.7-2.5-2.8c-2.3-3.3-5.7-10.2-8.6-23.1
		s-5.4-31.8-6.1-58.8c-1.2-47.2-8.4-77-20.1-97.7c-5.8-10.3-12.9-18.1-20.4-24c-0.2-0.2-0.4-0.3-0.7-0.5L452.8,111L414,86.2
		l26.4-41.3L370.1,0l-26.4,41.3l-38.8-24.8L195.1,188.3l-3.2-2.1c-5.1-3.3-11.9-1.8-15.2,3.3s-1.8,11.9,3.3,15.1l3.2,2.1L59.2,401
		L98,425.8l-26.4,41.3l70.3,44.9l4.7-7.4l21.7-33.9l38.8,24.8l123.9-194c0.2,0.2,0.3,0.4,0.5,0.6c0.5,0.4,0.7,0.8,1.1,1.6
		c0.3,0.9,0.6,2.4,0.6,4.5c0.1,5-1.8,13-4.9,22.2c-4.7,14-12.1,30.9-18.5,48.3c-6.3,17.4-11.7,35.4-11.8,52.7c0,7.7,1.1,15.3,4,22.6
		c2.9,7.2,7.7,13.9,14.2,19.3c4.7,3.8,11.6,3.2,15.4-1.5s3.2-11.6-1.5-15.4c-3.8-3.1-6.1-6.5-7.8-10.5c-1.6-4-2.5-8.8-2.5-14.4
		c0-8.4,1.9-18.4,5.1-28.9c4.7-15.9,12-33.1,18.3-49.2c3.1-8.1,6-15.9,8.2-23.4c0.1-0.2,0.1-0.3,0.1-0.5c0.2,0.5,0.4,0.9,0.5,1.3
		c5.9,16.2,10,39.5,10.9,73.4c1.3,47.1,7.4,72.1,14.4,86.6c3.5,7.2,7.4,11.9,11.1,14.8s7.3,3.9,9.1,4.1c6,0.6,11.4-3.7,12.1-9.8
		C410.4,494.6,407,490,402.2,488.5z M375.4,24.3l40.7,26l-16.9,26.5l-40.7-26L375.4,24.3z M136.6,487.8l-40.7-26l16.9-26.5l40.7,26
		L136.6,487.8z M204.4,390.3l-48.5-31L233,238.5l48.5,31L204.4,390.3z M293.3,251l-48.5-31l62.8-98.3l48.5,31L293.3,251z"/>
</g>
</svg>
