<?xml version="1.0" encoding="utf-8"?>
<!-- Generator: Adobe Illustrator 22.1.0, SVG Export Plug-In . SVG Version: 6.00 Build 0)  -->
<svg version="1.1" id="_x32_" xmlns="http://www.w3.org/2000/svg" xmlns:xlink="http://www.w3.org/1999/xlink" x="0px" y="0px"
	 viewBox="0 0 512 512" style="enable-background:new 0 0 512 512;" xml:space="preserve">
<style type="text/css">
	.st0{fill:#9A17BA;}
</style>
<g>
	<path class="st0" d="M256,265.3c73.3,0,132.6-59.4,132.6-132.7C388.6,59.4,329.3,0,256,0S123.4,59.4,123.4,132.7
		C123.4,205.9,182.7,265.3,256,265.3z"/>
	<path class="st0" d="M425.9,393.1c-5.9-35.5-36-84.5-57.6-107.5c-5.8-6.2-15.9-3.6-19.5-1.4c-27,16.7-58.8,26.4-92.8,26.4
		s-65.8-9.7-92.8-26.4c-3.6-2.2-13.7-4.8-19.5,1.4c-21.6,23-51.6,72-57.6,107.5C71.6,480.4,164.9,512,256,512
		S440.4,480.4,425.9,393.1z"/>
</g>
</svg>
