<?xml version="1.0" encoding="utf-8"?>
<!-- Generator: Adobe Illustrator 22.1.0, SVG Export Plug-In . SVG Version: 6.00 Build 0)  -->
<svg version="1.1" id="_x32_" xmlns="http://www.w3.org/2000/svg" xmlns:xlink="http://www.w3.org/1999/xlink" x="0px" y="0px"
	 viewBox="0 0 512 512" style="enable-background:new 0 0 512 512;" xml:space="preserve">
<style type="text/css">
	.st0{fill:#E05A00;}
</style>
<g>
	<polygon class="st0" points="139.7,59.3 108.5,140.4 403.5,140.4 372.3,59.3 	"/>
	<polygon class="st0" points="88.3,207 57.2,288.1 454.9,288.1 423.7,207 	"/>
	<polygon class="st0" points="48,374.9 12.6,512 499.4,512 464,374.9 	"/>
	<rect x="110" y="231.9" class="st0" width="32.5" height="154.6"/>
	<rect x="369.6" y="231.9" class="st0" width="32.5" height="154.6"/>
	<rect x="144.4" y="85.8" class="st0" width="32.5" height="154.6"/>
	<rect x="335.1" y="85.8" class="st0" width="32.5" height="154.6"/>
	<path class="st0" d="M180.1,20.1c-15.5,2.4-2.6,23.7,14.2,22.5l2.6,26.1c0,0-44.6-1.2-44.6-31.4c0-25.5,23.9-27.8,23.9-27.8
		L190.4,0v13l7.8,9.5L180.1,20.1z"/>
	<path class="st0" d="M331.9,20.1c15.5,2.4,2.6,23.7-14.2,22.5l-2.6,26.1c0,0,44.6-1.2,44.6-31.4c0-25.5-23.9-27.8-23.9-27.8
		L321.6,0v13l-7.7,9.5L331.9,20.1z"/>
	<rect x="239.8" y="156.4" class="st0" width="32.5" height="32.4"/>
	<rect x="192.8" y="314.6" class="st0" width="32.5" height="32.5"/>
	<rect x="286.8" y="314.6" class="st0" width="32.5" height="32.5"/>
</g>
</svg>
