<?xml version="1.0" encoding="utf-8"?>
<!-- Generator: Adobe Illustrator 22.1.0, SVG Export Plug-In . SVG Version: 6.00 Build 0)  -->
<svg version="1.1" id="_x32_" xmlns="http://www.w3.org/2000/svg" xmlns:xlink="http://www.w3.org/1999/xlink" x="0px" y="0px"
	 viewBox="0 0 512 512" style="enable-background:new 0 0 512 512;" xml:space="preserve">
<style type="text/css">
	.st0{fill:#96805D;}
</style>
<g>
	<path class="st0" d="M498.5,218c0,0-6-13.3-14.1-25.5C444.3,132.2,381,88.8,307.3,74.8V42h-22.2c1.3-3.4,2-7.1,2-10.9
		C287.1,13.9,273.2,0,256,0s-31.1,13.9-31.1,31.1c0,3.8,0.7,7.5,2,10.9h-22.2v32.8C130.6,88.8,67,132.7,27,193.5
		C19.2,205.4,13.5,218,13.5,218c-1.5,2.7-1.4,6.1,0.1,8.7c1.6,2.7,4.5,4.3,7.6,4.3h129v74.6h-38.4v41.5H154c1,1.9,2.3,4.1,3.7,6.2
		c5,7.5,10.9,14.4,17.4,20.6c-10.2,8.3-19.1,18.1-26.3,29.1c-3.7,5.6-6.3,11.5-6.3,11.5c-9.5,16.1-22,59.1-38.3,97.4h79.6
		c0-27.1,26.3-94.9,72.1-94.9c45.9,0,72.1,67.8,72.1,94.9h79.6c-16.3-38.3-28.8-81.3-38.3-97.4c0,0-2.6-5.9-6.3-11.5
		c-7.2-11-16.1-20.8-26.3-29.1c6.7-6.3,12.6-13.3,17.7-21c1.3-2,2.5-4.1,3.4-5.8h42.1v-41.5h-38.4V231h129c3.1,0,6-1.6,7.6-4.3
		C499.9,224,500,220.7,498.5,218z M290.2,281.8c0,8.6-7,15.6-15.6,15.6h-37.3c-8.6,0-15.6-7-15.6-15.6v-43.5c0-2.6,0.7-5.1,1.9-7.3
		h64.7c1.2,2.2,1.9,4.6,1.9,7.3L290.2,281.8L290.2,281.8z"/>
</g>
</svg>
