<?xml version="1.0" encoding="utf-8"?>
<!-- Generator: Adobe Illustrator 22.0.1, SVG Export Plug-In . SVG Version: 6.00 Build 0)  -->
<svg version="1.1" id="_x32_" xmlns="http://www.w3.org/2000/svg" xmlns:xlink="http://www.w3.org/1999/xlink" x="0px" y="0px"
	 viewBox="0 0 512 512" style="enable-background:new 0 0 512 512;" xml:space="preserve">
<style type="text/css">
	.st0{fill:#9B7F68;}
</style>
<g>
	<path class="st0" d="M474.2,207c-0.1,0-0.2,0-0.3,0c-2.3-18.6-18.2-33.1-37.5-33.1c-5.3,0-10.4,1.1-14.9,3.1
		c-6.3-16.8-22.5-28.7-41.4-28.7c-19,0-35.1,11.9-41.4,28.7c-4.6-2-9.6-3.1-14.9-3.1c-19.3,0-35.2,14.4-37.5,33.1
		c-0.1,0-0.2,0-0.3,0c-20.9,0-37.8,16.9-37.8,37.8s16.9,37.8,37.8,37.8c6.6,0,18.2-2.4,34.4-4.7c19.8,16.6,58.7,32.3,48.6,48.7
		c-4.6,7.5-17,14.9-31.1,21.3c-52-44.9-153.3-66.1-78.1-186.3c25.5,2.6,43,6.8,51.7,6.8c20.6,0,37.3-16.7,37.3-37.3
		S332,93.8,311.4,93.8c-0.1,0-0.2,0-0.3,0c-2.3-18.4-18-32.6-37-32.6c-5.2,0-10.2,1.1-14.7,3C253.1,47.8,237.2,36,218.5,36
		s-34.6,11.7-40.8,28.2c-4.5-1.9-9.5-3-14.7-3c-19,0-34.6,14.2-37,32.6c-0.1,0-0.2,0-0.3,0c-20.6,0-37.3,16.7-37.3,37.3
		s16.7,37.3,37.3,37.3c8.9,0,27-4.3,53.5-7c-2.2,30.1,10.6,49.2,20,59.1c-1.8,7.4-3,14.7-3.5,21.8c1.8,2.9,3.2,6.1,4.2,9.4
		c19.2,2.9,34.1,19.5,34.1,39.5c0,13.1-6.3,24.6-16,31.9c6.6,10.1,14.5,19.6,23.5,28.6C301.6,412,196.2,476,196.2,476h143.1
		c0,0,40.5-50.2,22.3-96.5c23.4-15.8,45.9-34.5,47.9-49.1c1.1-8-1.8-14-7-19.1c4.9-7.6,11.7-20.3,15.2-36
		c28.1,2.6,47.3,7.3,56.6,7.3c20.9,0,37.8-16.9,37.8-37.8C512,223.9,495.1,207,474.2,207z M307.4,131.7c6.7-8.1,14.6-13.9,17-11.6
		c2.5,2.3-2.9,10.5-10.7,17.6c-8.6,7.9-14.9,12-16.3,10.8C296.2,147.3,300,140.8,307.4,131.7z M264.7,111.7
		c4.3-11.5,10.9-20.9,14.5-19.3s0.8,12.8-5.2,23.6c-6.6,12-12,19-14,18.1C258.2,133.3,259.9,124.6,264.7,111.7z M218.5,77
		c4.3,0,6.6,12.4,5.6,25.9c-1.1,15-3.3,24.5-5.6,24.5s-4.6-9.4-5.6-24.5C211.9,89.4,214.2,77,218.5,77z M139.6,148.5
		c-1.3,1.3-7.6-2.9-16.3-10.8c-7.8-7.1-13.1-15.3-10.7-17.6c2.4-2.3,10.4,3.5,17,11.6C137.1,140.8,140.9,147.3,139.6,148.5z
		 M176.9,134.1c-1.9,0.9-7.4-6.1-14-18.1c-5.9-10.8-8.8-21.9-5.2-23.6c3.6-1.6,10.2,7.7,14.5,19.3
		C177.1,124.6,178.9,133.3,176.9,134.1z M205.7,199.8c-10.1-11.6-12.1-30.5-12.4-39.5c7.8-0.5,16.2-0.8,25.2-0.8
		c3.1,0,6.1,0,9.1,0.1C218.2,173.3,210.9,186.7,205.7,199.8z M379.9,189.9c4.4,0,6.7,12.6,5.7,26.3c-1.1,15.2-3.3,24.8-5.7,24.8
		c-2.4,0-4.6-9.6-5.7-24.8C373.2,202.5,375.5,189.9,379.9,189.9z M318.3,205.6c3.6-1.7,10.3,7.8,14.7,19.5c4.9,13,6.7,21.8,4.7,22.7
		s-7.5-6.2-14.2-18.4C317.5,218.6,314.7,207.3,318.3,205.6z M299.8,262.5c-1.3,1.3-7.7-2.9-16.5-10.9c-7.9-7.2-13.3-15.5-10.8-17.9
		s10.5,3.5,17.3,11.8C297.3,254.6,301.1,261.2,299.8,262.5z M382.8,298.3c-11.5-6.3-24.7-13-35-23.5c9.8-0.8,20.5-1.3,32.2-1.3
		c7.8,0,15,0.2,22,0.6C398.8,282.7,393.1,291.7,382.8,298.3z M436.3,229.5c-6.7,12.2-12.2,19.3-14.2,18.4c-2-0.9-0.2-9.7,4.7-22.7
		c4.4-11.7,11.1-21.2,14.7-19.5C445.2,207.3,442.3,218.6,436.3,229.5z M476.6,251.6c-8.8,8-15.2,12.2-16.5,10.9
		c-1.3-1.3,2.5-7.9,10-17.1c6.8-8.3,14.8-14.1,17.3-11.8C489.9,236,484.5,244.4,476.6,251.6z"/>
	<path class="st0" d="M248.3,400c2.4-26.6-6.1-27.4-18.3-36.9c-33.4,14.6-61.3,10-81.7-1.8c5.7-6.1,15.7-19.9,15.3-41.6
		c14.3,2,24.6,4.1,30.3,4.1c17.9,0,32.4-14.5,32.4-32.4S211.8,259,193.9,259c-0.1,0-0.2,0-0.3,0c-2-16-15.6-28.4-32.1-28.4
		c-4.5,0-8.9,1-12.8,2.6c-5.4-14.4-19.3-24.6-35.5-24.6c-16.3,0-30.1,10.2-35.5,24.6c-3.9-1.7-8.3-2.6-12.8-2.6
		c-16.5,0-30.1,12.4-32.1,28.4c-0.1,0-0.2,0-0.3,0C14.5,258.8,0,273.3,0,291.3s14.5,32.4,32.4,32.4c9.1,0,29.4-5.3,59.7-7.1
		C106.9,393.7,198.9,414.6,248.3,400z M44.5,306.4c-1.2,1.1-6.6-2.5-14.1-9.4c-6.8-6.2-11.4-13.3-9.3-15.3s9,3,14.8,10.1
		C42.3,299.7,45.6,305.3,44.5,306.4z M77,293.9c-1.7,0.8-6.4-5.3-12.2-15.7c-5.2-9.4-7.6-19.1-4.5-20.5s8.9,6.7,12.6,16.8
		C77.2,285.6,78.7,293.1,77,293.9z M190.5,291.8c5.8-7.1,12.7-12.1,14.8-10.1s-2.5,9.2-9.3,15.3c-7.5,6.9-13,10.5-14.1,9.4
		C180.7,305.3,184,299.7,190.5,291.8z M153.4,274.4c3.8-10,9.5-18.2,12.6-16.8c3.1,1.4,0.7,11.1-4.5,20.5
		c-5.8,10.5-10.5,16.5-12.2,15.7C147.7,293.1,149.2,285.6,153.4,274.4z M113.2,244.2c3.8,0,5.8,10.8,4.9,22.5
		c-0.9,13.1-2.9,21.3-4.9,21.3s-4-8.2-4.9-21.3C107.4,255,109.4,244.2,113.2,244.2z M113.2,315.9c14.4,0,27,0.9,37.9,2.1
		c-0.5,9.9-3.4,25.6-16.5,33.3c-12.3-11-20.1-24.4-22.5-35.4C112.5,315.9,112.8,315.9,113.2,315.9z"/>
</g>
</svg>
